<svg xmlns="http://www.w3.org/2000/svg" viewBox="0 0 2256.55 818.13"><defs><style>.cls-1,.cls-2{fill:none;stroke:#fff;}.cls-1{stroke-linecap:round;stroke-linejoin:round;stroke-width:21.85px;}.cls-2,.cls-3{stroke-miterlimit:10;}.cls-2{stroke-width:3px;}.cls-3{fill:#fff;stroke:#f52f41;}</style></defs><title>1-oc</title><g id="Capa_2" data-name="Capa 2"><g id="Modo_de_aislamiento" data-name="Modo de aislamiento"><path class="cls-1" d="M1991.64,773.36h33.85c65.47,0,118.48-36.12,118.48-101.55V598.36"/><path class="cls-1" d="M2110.12,333.31a135.41,135.41,0,0,1,45.15,263.1,33.86,33.86,0,0,1-45.15-31.9Z"/><path class="cls-1" d="M1602.37,333.31a135.41,135.41,0,0,0-45.15,263.1,33.86,33.86,0,0,0,45.15-31.9Z"/><path class="cls-1" d="M2110.12,384.09v-67.7c0-140.2-113.64-253.88-253.87-253.88s-253.88,113.68-253.88,253.88v67.7"/><path class="cls-1" d="M1839.32,739.51h135.4a16.93,16.93,0,0,1,16.92,16.92v33.85a16.92,16.92,0,0,1-16.92,16.93h-135.4a33.85,33.85,0,1,1,0-67.7Z"/><path class="cls-2" d="M322.48,665.77H481.94V795.19H1.5V665.77H161V238.14l-149.09,88V184.3L228.27,58h94.21Z"/><path class="cls-3" d="M379,608.28H538.42V737.7H58V608.28H217.44V180.66l-149.09,88V126.81L284.75.5H379Z"/></g></g></svg>