<svg xmlns="http://www.w3.org/2000/svg" viewBox="0 0 2259.34 815.06"><defs><style>.cls-1,.cls-3{fill:none;stroke:#fff;}.cls-1{stroke-linecap:round;stroke-linejoin:round;stroke-width:20.7px;}.cls-2{fill:#fff;}.cls-3{stroke-miterlimit:10;stroke-width:3px;}</style></defs><title>2-oc</title><g id="Capa_2" data-name="Capa 2"><g id="Modo_de_aislamiento" data-name="Modo de aislamiento"><circle class="cls-1" cx="1613.38" cy="667.38" r="114.08"/><path class="cls-1" d="M1503.47,513.83a195.55,195.55,0,0,1,199.38-12.26"/><line class="cls-1" x1="2101.2" y1="500.43" x2="2052.4" y2="372.07"/><path class="cls-1" d="M2214.9,484a196.63,196.63,0,0,0-126.83-18.06"/><circle class="cls-1" cx="2134.91" cy="667.38" r="114.08"/><path class="cls-1" d="M1920.33,509.82l82.76-31.71a16.27,16.27,0,0,1,22.13,15v10.36a97.74,97.74,0,0,1-26.63,68.45l-58,61.51"/><line class="cls-1" x1="1938.65" y1="121.73" x2="1988.23" y2="121.73"/><path class="cls-1" d="M1800.12,177.4a74.44,74.44,0,0,0,136.67-40.77v-14.9"/><path class="cls-1" d="M1938.65,121.62h-80.8c-26.5,0-58.67,77.78-75,59.46a89.32,89.32,0,1,1,155.77-59.46Z"/><path class="cls-1" d="M1825.25,732.53a48.89,48.89,0,0,1-48.89-48.9V598.5a91.11,91.11,0,0,0-43-77.48l-64.54-40.39a48.87,48.87,0,0,1-14.11-69.46l114.08-163a48.89,48.89,0,0,1,82.5,3.78L1876,295.33a91.82,91.82,0,0,0,79.6,46.05,48.9,48.9,0,1,1,0,97.79A189.33,189.33,0,0,1,1806,365.77L1764.49,425l20.7,13a188.39,188.39,0,0,1,89,160.44v85.13a48.86,48.86,0,0,1-48.89,48.9Z"/><path class="cls-2" d="M593,617.11V746.53H86.7V627.45L332.09,366.53q76.62-82.83,76.62-151.15,0-43.5-25.37-65.76t-74-22.26q-94.23,0-195.69,71.44l-51.77-116q44.5-38.29,113.89-60.57A458,458,0,0,1,316.56,0Q431.49,0,499.31,55.41T567.13,204q0,64.2-26.4,118.55T452.2,443.16l-166.71,174Z"/><path class="cls-3" d="M533,684.14V813.56H26.67V694.48L272.06,433.56q76.62-82.83,76.62-151.16,0-43.5-25.37-65.75t-74-22.26q-94.21,0-195.69,71.43L1.83,149.87q44.51-38.29,113.89-60.58A458.24,458.24,0,0,1,256.53,67q114.93,0,182.75,55.4T507.11,271q0,64.2-26.41,118.55T392.17,510.18l-166.7,174Z"/></g></g></svg>