<svg xmlns="http://www.w3.org/2000/svg" viewBox="0 0 2212.28 815.14"><defs><style>.cls-1,.cls-3{fill:none;stroke:#fff;}.cls-1{stroke-miterlimit:10;stroke-width:3px;}.cls-2{fill:#fff;}.cls-3{stroke-linecap:round;stroke-linejoin:round;stroke-width:20.2px;}</style></defs><title>3-OC</title><g id="Capa_2" data-name="Capa 2"><g id="Modo_de_aislamiento" data-name="Modo de aislamiento"><path class="cls-1" d="M501.4,480.89Q536.08,527,536.08,594.27q0,97.34-73.51,153.25t-199.83,55.9a485.14,485.14,0,0,1-147-22.25Q45.3,758.91,1.82,720.6l51.78-116q98.34,71.43,201.89,71.43,67.32,0,97.85-23.29t30.54-74q0-48.66-30.54-70.91t-97.85-22.27H149.88V359.24h88q64.17,0,95.25-22.25t31.06-67.83q0-45.57-27.44-69.38T258.6,176Q211,176,161.27,194.1T63.94,247.41L12.18,131.46Q56.69,93.15,126.07,70.88A464.51,464.51,0,0,1,269,48.61q74.54,0,131,24.86t87,69.38q30.54,44.52,30.55,104.56t-30,104.06q-30,44-84.91,64.72Q466.72,434.82,501.4,480.89Z"/><path class="cls-2" d="M588.47,432.28q34.68,46.08,34.69,113.38,0,97.33-73.52,153.25t-199.83,55.9a485.14,485.14,0,0,1-147-22.25Q132.37,710.3,88.89,672l51.78-116Q239,627.45,342.56,627.45q67.32,0,97.85-23.29t30.54-74q0-48.64-30.54-70.9T342.56,437H237V310.62h88q64.17,0,95.25-22.24t31.06-67.83q0-45.57-27.44-69.38t-78.17-23.81q-47.62,0-97.33,18.12T151,198.8l-51.76-116q44.51-38.29,113.89-60.57A464.51,464.51,0,0,1,356,0q74.54,0,131,24.86t87,69.37q30.54,44.53,30.55,104.57t-30,104.06q-30,44-84.91,64.72Q553.79,386.21,588.47,432.28Z"/><line class="cls-3" x1="1693.8" y1="144.85" x2="1693.8" y2="216.85"/><path class="cls-3" d="M2071.54,317.15s19.92-118,108.09-119.5A12.65,12.65,0,0,0,2192.1,185V105.39A58.4,58.4,0,0,0,2133.7,47H1498.91a50.74,50.74,0,0,0-50.74,50.74v78.73a7.63,7.63,0,0,0,5.19,7.23c24,8.09,122.38,48.05,114.73,156.16,0,0,6.72,75.93-110.12,120.87a15.21,15.21,0,0,0-9.8,14.19V546a55.43,55.43,0,0,0,55.42,55.43h208.68"/><circle class="cls-3" cx="1998.55" cy="601.42" r="203.62"/><line class="cls-3" x1="1998.55" y1="490.53" x2="1998.55" y2="712.3"/><line class="cls-3" x1="1887.67" y1="601.42" x2="2109.44" y2="601.42"/><line class="cls-3" x1="1693.8" y1="288.21" x2="1693.8" y2="360.21"/><line class="cls-3" x1="1693.8" y1="431.56" x2="1693.8" y2="503.56"/></g></g></svg>