<svg xmlns="http://www.w3.org/2000/svg" viewBox="0 0 2282.64 827.57"><defs><style>.cls-1,.cls-3{fill:none;stroke:#fff;}.cls-1{stroke-linecap:round;stroke-linejoin:round;stroke-width:22.73px;}.cls-2{fill:#fff;}.cls-3{stroke-miterlimit:10;stroke-width:3px;}</style></defs><title>4-oc</title><g id="Capa_2" data-name="Capa 2"><g id="Modo_de_aislamiento" data-name="Modo de aislamiento"><path class="cls-1" d="M1790.37,808h-274.8a34.34,34.34,0,0,1-34.35-34.34V121.05a34.34,34.34,0,0,1,34.35-34.34h68.7"/><path class="cls-1" d="M1996.47,86.71h68.69a34.34,34.34,0,0,1,34.35,34.34V361.5"/><path class="cls-1" d="M1859.07,86.71a68.7,68.7,0,0,0-137.4,0H1653v103h274.8v-103Z"/><path class="cls-1" d="M2030.82,361.5V172.58a17.19,17.19,0,0,0-17.18-17.18h-85.87"/><path class="cls-1" d="M1653,155.4H1567.1a17.19,17.19,0,0,0-17.18,17.18V722.17a17.18,17.18,0,0,0,17.18,17.18h223.27"/><line class="cls-1" x1="1652.97" y1="292.8" x2="1927.77" y2="292.8"/><line class="cls-1" x1="1652.97" y1="395.85" x2="1927.77" y2="395.85"/><line class="cls-1" x1="1652.97" y1="498.9" x2="1790.37" y2="498.9"/><path class="cls-1" d="M2003.34,766.84l-144.27,41.22,41.22-144.27,246.6-246.59a72.87,72.87,0,0,1,103.05,103.05Z"/><line class="cls-1" x1="2115.95" y1="448.06" x2="2219" y2="551.11"/><line class="cls-1" x1="1900.29" y1="663.77" x2="2003.34" y2="766.82"/><path class="cls-2" d="M668.8,477.31V602.59H568.36V737.2H409.94V602.59H100.36V482.5L438.94,0H568.36V477.31Zm-420.37,0H409.94V245.39Z"/><path class="cls-3" d="M569.94,566.18V691.46H469.5V826.07H311.08V691.46H1.5V571.36L340.08,88.86H469.5V566.18Zm-420.38,0H311.08V334.25Z"/></g></g></svg>