<svg xmlns="http://www.w3.org/2000/svg" viewBox="0 0 2215.2 814.72"><defs><style>.cls-1{fill:#fff;}.cls-2,.cls-3{fill:none;stroke:#fff;}.cls-2{stroke-miterlimit:10;stroke-width:3px;}.cls-3{stroke-linecap:round;stroke-linejoin:round;stroke-width:24.25px;}</style></defs><title>5-oc</title><g id="Capa_2" data-name="Capa 2"><g id="Modo_de_aislamiento" data-name="Modo de aislamiento"><path class="cls-1" d="M529.37,289.08q53.25,29.48,82.73,83.25t29.49,124.11q0,74.48-34.66,130.84t-99.28,86.88Q443,744.67,357.16,744.67a440.58,440.58,0,0,1-139.11-22.75q-68.76-22.75-111.17-60L158.6,546.09q98.25,71.37,200.64,71.36,129.28,0,129.28-114.79,0-54.82-33.62-86.36t-91.52-31.55q-36.21,0-72.92,13.45a224.21,224.21,0,0,0-65.67,37.22h-92V0H605.38V124.11H289.94V288.56q48.62-28.93,117.91-28.95Q476.1,259.61,529.37,289.08Z"/><path class="cls-2" d="M424.3,357.62q53.25,29.49,82.74,83.26T536.52,565q0,74.49-34.65,130.85T402.59,782.7q-64.65,30.52-150.49,30.52A440.86,440.86,0,0,1,113,790.47q-68.76-22.76-111.17-60L53.54,614.64Q151.79,686,254.18,686q129.29,0,129.28-114.8,0-54.81-33.62-86.36T258.32,453.3q-36.21,0-72.92,13.45A223.73,223.73,0,0,0,119.73,504H27.68V68.55H500.32V192.66H184.88V357.11q48.62-29,117.91-28.95Q371,328.16,424.3,357.62Z"/><line class="cls-3" x1="2006.99" y1="651.72" x2="1582.14" y2="651.72"/><path class="cls-3" d="M1794.56,708.91h0a8.17,8.17,0,1,1-8.17,8.17,8.17,8.17,0,0,1,8.17-8.17"/><path class="cls-3" d="M2007,504.65V717.08a65.38,65.38,0,0,1-65.36,65.36H1647.5a65.38,65.38,0,0,1-65.36-65.36V96.14a65.38,65.38,0,0,1,65.36-65.36h163.4"/><path class="cls-3" d="M2056,128.82h-66.44a43.86,43.86,0,0,0-16.34,84.55l67.45,27a43.86,43.86,0,0,1-16.34,84.55H1958"/><line class="cls-3" x1="2006.99" y1="357.46" x2="2006.99" y2="331.78"/><circle class="cls-3" cx="2006.99" cy="226.86" r="196.09"/><line class="cls-3" x1="2006.96" y1="124.87" x2="2006.96" y2="99.19"/></g></g></svg>