<svg xmlns="http://www.w3.org/2000/svg" xmlns:xlink="http://www.w3.org/1999/xlink" viewBox="0 0 2168.22 4296.85"><defs><style>.cls-1{fill:none;}.cls-2{clip-path:url(#clip-path);}.cls-3{clip-path:url(#clip-path-2);}.cls-4{fill:#f77ee9;}</style><clipPath id="clip-path" transform="translate(0 0)"><rect class="cls-1" y="0.01" width="2168.22" height="4296.84"/></clipPath><clipPath id="clip-path-2" transform="translate(0 0)"><rect class="cls-1" width="2168.22" height="4296.84"/></clipPath></defs><title>Asunción</title><g id="Capa_2" data-name="Capa 2"><g id="Capa_1-2" data-name="Capa 1"><g id="Ilustración_2" data-name="Ilustración 2"><g class="cls-2"><g class="cls-3"><path class="cls-4" d="M1480.29,0c-9.19,33.79-18.22,67.63-27.59,101.37Q1343.41,495.11,1234,888.82,1055.08,1532.92,876.15,2177,678.38,2889,480.6,3600.94q-95.16,342.61-190,685.32c-2.29,8.28-5.69,10.58-14.07,10.55q-133.7-.48-267.4,0c-9.83,0-10.33-2.43-8-10.89q176.27-633.54,352.15-1267.2Q510.9,2451.63,668.6,1884.5q173.24-623.55,346.34-1247.12Q1103.44,318.69,1192,0Z" transform="translate(0 0)"/><path class="cls-4" d="M2168.22,0q-97.16,349.77-194.3,699.53-130.56,470.19-261.08,940.4-188.85,680-377.75,1359.9-178.8,643.64-357.44,1287.3c-2,7.4-4.82,9.7-12.52,9.67-89.12-.3-178.26-.19-267.39-.19-11.94,0-11.91,0-8.68-11.66q162.81-585.79,325.58-1171.59Q1194.78,2465,1374.8,1816.52q188.85-680,377.75-1359.9,62.65-225.54,125.32-451.06c.53-1.9,1.37-3.71,2.06-5.56Z" transform="translate(0 0)"/></g></g></g></g></g></svg>