<svg xmlns="http://www.w3.org/2000/svg" xmlns:xlink="http://www.w3.org/1999/xlink" viewBox="0 0 1198.56 1219.06"><defs><style>.cls-1,.cls-10,.cls-11,.cls-12,.cls-13,.cls-4,.cls-5,.cls-8,.cls-9{fill:none;}.cls-2{fill:#fa0050;}.cls-3{clip-path:url(#clip-path);}.cls-4,.cls-5,.cls-6,.cls-7{stroke:#f8ea46;}.cls-10,.cls-11,.cls-12,.cls-4,.cls-5,.cls-6,.cls-7,.cls-8,.cls-9{stroke-linecap:round;stroke-linejoin:round;}.cls-4,.cls-6{stroke-width:26.8px;}.cls-5{stroke-width:27.59px;}.cls-6,.cls-7{fill:#606061;}.cls-7{stroke-width:27.29px;}.cls-8,.cls-9{stroke:#fff;}.cls-8{stroke-width:7.29px;}.cls-9{stroke-width:8.84px;}.cls-10,.cls-11,.cls-12{stroke:#f52f41;stroke-width:8.11px;}.cls-11{stroke-dasharray:13.56 13.56;}.cls-12{stroke-dasharray:12.55 12.55;}.cls-13{stroke:#273239;stroke-miterlimit:10;stroke-width:5.18px;}.cls-14{fill:#fafafb;}</style><clipPath id="clip-path" transform="translate(0 34.31)"><path class="cls-1" d="M461.38,0S-82.47,25.63,83.91,455.39c100.66,260,21.57,340.19,21.57,340.19s-458.29,349.59,535.64,355.83S962.85,161.06,794.79,184.78,698.64,0,461.38,0Z"/></clipPath></defs><g id="Capa_2" data-name="Capa 2"><g id="Capa_1-2" data-name="Capa 1"><path class="cls-2" d="M461.38,0S-82.47,25.63,83.91,455.39c100.66,260,21.57,340.19,21.57,340.19s-458.29,349.59,535.64,355.83S962.85,161.06,794.79,184.78,698.64,0,461.38,0Z" transform="translate(0 34.31)"/><g class="cls-3"><line class="cls-4" x1="955.28" y1="467.63" x2="1038.27" y2="384.65"/><line class="cls-5" x1="49.03" y1="1100.5" x2="48.65" y2="884.14"/><line class="cls-6" x1="985.95" y1="677.06" x2="985.95" y2="1162.59"/><line class="cls-6" x1="728.03" y1="422.29" x2="728.03" y2="1205.67"/><line class="cls-6" x1="599.08" y1="296.48" x2="596.72" y2="966.43"/><line class="cls-7" x1="470.12" y1="422.29" x2="475.62" y2="1204.65"/><line class="cls-4" x1="320.72" y1="14.19" x2="1185.16" y2="876.14"/><line class="cls-4" x1="499.73" y1="13.4" x2="1180.3" y2="692"/><line class="cls-4" x1="1160.35" y1="964.85" x2="728.82" y2="964.85"/><line class="cls-4" x1="985.16" y1="677.06" x2="1125.57" y2="536.65"/><line class="cls-4" x1="727.25" y1="419.14" x2="918.92" y2="227.47"/><line class="cls-4" x1="599.86" y1="293.33" x2="724.9" y2="168.29"/><polyline class="cls-4" points="727.25 419.14 328.86 419.14 48.65 419.14"/><line class="cls-4" x1="1107.83" y1="799.73" x2="472.48" y2="799.73"/><line class="cls-4" x1="906.53" y1="598.43" x2="472.48" y2="598.43"/><line class="cls-4" x1="134.36" y1="145.92" x2="134.36" y2="964.85"/><line class="cls-4" x1="30.43" y1="864.07" x2="352.11" y2="1185.75"/><line class="cls-4" x1="475.62" y1="1176.42" x2="911.47" y2="1176.42"/><line class="cls-7" x1="472.48" y1="799.73" x2="147.84" y2="799.73"/><line class="cls-4" x1="334.63" y1="13.4" x2="334.63" y2="419.09"/><path class="cls-8" d="M808.84,832.77v75.47a6,6,0,0,0,6,6h90.55a6,6,0,0,0,6-6V832.77" transform="translate(0 34.31)"/><polyline class="cls-8" points="790.73 885.2 860.15 815.77 929.58 885.2"/><path class="cls-8" d="M848.08,866h24.15a6,6,0,0,1,6,6v42.26H842V872A6,6,0,0,1,848.08,866Z" transform="translate(0 34.31)"/><circle class="cls-8" cx="860.15" cy="864.07" r="12.07"/><path class="cls-9" d="M487.37,314V214.7s13.06,8.61,11.47,62.77h-10.2" transform="translate(0 34.31)"/><line class="cls-9" x1="457.92" y1="349.7" x2="457.92" y2="247.63"/><path class="cls-9" d="M444.86,213.32v21.76a11.62,11.62,0,0,0,.11,1.67A18.22,18.22,0,0,0,446.5,242a12.8,12.8,0,0,0,20.16,3.8c2.45-2.44,3.37-6.22,3.37-10.14V213.32" transform="translate(0 34.31)"/><path class="cls-9" d="M470.44,193.16a68.86,68.86,0,0,0-13.55,136.37l15.38,35.71,13.63-36.12a68.86,68.86,0,0,0-15.46-136Z" transform="translate(0 34.31)"/><line class="cls-10" x1="470.44" y1="420.34" x2="470.44" y2="426.94"/><line class="cls-11" x1="470.44" y1="440.5" x2="470.44" y2="786.34"/><polyline class="cls-10" points="470.44 793.13 470.44 799.73 463.84 799.73"/><line class="cls-12" x1="451.29" y1="799.73" x2="256.76" y2="799.73"/><line class="cls-10" x1="250.49" y1="799.73" x2="243.89" y2="799.73"/><path class="cls-13" d="M181.26,742.32s33.05,22.68,46,22.68c11.66,0,14.9-56.37,14.9-56.37" transform="translate(0 34.31)"/><path class="cls-13" d="M187.1,724.83s24.62,45.35,40.17,40.17c17.9-6,25.92-63.5,25.92-63.5" transform="translate(0 34.31)"/><path class="cls-14" d="M146.62,705q0,.33.06.66c.13,3.33,3.25,31,8.15,36.56l.09.06,1.78,2.64a8.82,8.82,0,0,0,5.52,3.74c6.41,1.31,19.69,3.05,25.07-3.63a9,9,0,0,0,1.78-4.08c.12-.67.38-1.7.51-2.43,1.13-6.19,4.94-19.58,17-22.56a53.9,53.9,0,0,1,23.19-1.15l.4.07a18.79,18.79,0,0,0,18.34-6.74,31.42,31.42,0,0,1,19.06-8.94s14.7-2.06,22.12-3a2.77,2.77,0,0,0,2-4.11c-5.8-10.54-23.37-40.12-39.7-43.74a3.54,3.54,0,0,1-.44-.11c-2.81-.81-35.95-9.85-70.69,3.8a6.92,6.92,0,0,0-1,.44C175.45,654.93,142.84,673.47,146.62,705Z" transform="translate(0 34.31)"/><path class="cls-2" d="M176.73,684.84l-.33,0-1.55.53-18.35,2.94c-.33-.23-.52.34-.52.34l.46,2.87c.51,3.18,3,4.58,7.11,3.92L178,693.21a2.79,2.79,0,0,1,3.24,2.73,2.86,2.86,0,0,1-2.45,2.81l-16.06,2.57a.53.53,0,0,0-.44.47l-1.4,15.7a.47.47,0,0,0,.16.42.55.55,0,0,0,.44.14l5.19-.83a3.22,3.22,0,0,0,2.62-2.87l.62-5.63,10.2-1.63a11.37,11.37,0,0,0,9.6-12.18,11.24,11.24,0,0,0-13-10" transform="translate(0 34.31)"/><line class="cls-4" x1="596.72" y1="966.43" x2="472.77" y2="966.43"/></g></g></g></svg>