<svg xmlns="http://www.w3.org/2000/svg" xmlns:xlink="http://www.w3.org/1999/xlink" viewBox="0 0 1198.56 1219.06"><defs><style>.cls-1,.cls-10,.cls-11,.cls-12,.cls-17,.cls-4,.cls-6,.cls-7,.cls-8,.cls-9{fill:none;}.cls-2{fill:#fa0050;}.cls-3{clip-path:url(#clip-path);}.cls-4,.cls-5{stroke:#f8ea46;stroke-width:26.8px;}.cls-10,.cls-11,.cls-4,.cls-5,.cls-6,.cls-7,.cls-8,.cls-9{stroke-linecap:round;stroke-linejoin:round;}.cls-5{fill:#606061;}.cls-6,.cls-7{stroke:#fff;}.cls-6{stroke-width:7.29px;}.cls-7{stroke-width:8.84px;}.cls-10,.cls-11,.cls-8,.cls-9{stroke:#f52f41;stroke-width:8.11px;}.cls-9{stroke-dasharray:12.82 12.82;}.cls-10{stroke-dasharray:12.99 12.99;}.cls-11{stroke-dasharray:13.15 13.15;}.cls-12{stroke:#273239;stroke-width:5.18px;}.cls-12,.cls-17{stroke-miterlimit:10;}.cls-13{fill:#fafafb;}.cls-14{fill:#e53445;}.cls-15{fill:#f52f41;}.cls-16{fill:#c89f67;}.cls-17{stroke:#c89f67;stroke-width:4.44px;}.cls-18{fill:#fcfcfc;}</style><clipPath id="clip-path" transform="translate(0 34.31)"><path class="cls-1" d="M461.38,0S-82.47,25.63,83.91,455.39c100.66,260,21.57,340.19,21.57,340.19s-458.29,349.59,535.64,355.83S962.85,161.06,794.79,184.78,698.64,0,461.38,0Z"/></clipPath></defs><g id="Capa_2" data-name="Capa 2"><g id="Capa_1-2" data-name="Capa 1"><path class="cls-2" d="M461.38,0S-82.47,25.63,83.91,455.39c100.66,260,21.57,340.19,21.57,340.19s-458.29,349.59,535.64,355.83S962.85,161.06,794.79,184.78,698.64,0,461.38,0Z" transform="translate(0 34.31)"/><g class="cls-3"><line class="cls-4" x1="955.28" y1="467.63" x2="1038.27" y2="384.65"/><line class="cls-4" x1="49.03" y1="1100.5" x2="48.65" y2="896.44"/><line class="cls-5" x1="985.95" y1="677.06" x2="985.95" y2="1162.59"/><line class="cls-5" x1="728.03" y1="422.29" x2="728.03" y2="1205.67"/><line class="cls-5" x1="599.08" y1="296.48" x2="596.72" y2="966.43"/><line class="cls-5" x1="470.12" y1="422.29" x2="475.62" y2="1176.42"/><line class="cls-4" x1="320.72" y1="14.19" x2="1185.16" y2="876.14"/><line class="cls-4" x1="499.73" y1="13.4" x2="1180.3" y2="692"/><line class="cls-4" x1="1160.35" y1="964.85" x2="728.82" y2="964.85"/><line class="cls-4" x1="985.16" y1="677.06" x2="1125.57" y2="536.65"/><line class="cls-4" x1="727.25" y1="419.14" x2="918.92" y2="227.47"/><line class="cls-4" x1="599.86" y1="293.33" x2="724.9" y2="168.29"/><polyline class="cls-4" points="727.25 419.14 328.86 419.14 48.65 419.14"/><line class="cls-4" x1="1107.83" y1="799.73" x2="472.48" y2="799.73"/><line class="cls-4" x1="906.53" y1="598.43" x2="472.48" y2="598.43"/><line class="cls-4" x1="596.72" y1="966.43" x2="480.83" y2="966.43"/><line class="cls-4" x1="134.36" y1="419.14" x2="134.36" y2="964.85"/><line class="cls-4" x1="30.43" y1="864.07" x2="352.11" y2="1185.75"/><line class="cls-4" x1="475.62" y1="1176.42" x2="911.47" y2="1176.42"/><line class="cls-4" x1="472.48" y1="799.73" x2="147.84" y2="799.73"/><line class="cls-4" x1="334.63" y1="13.4" x2="334.63" y2="419.09"/><path class="cls-6" d="M808.84,832.77v75.47a6,6,0,0,0,6,6h90.55a6,6,0,0,0,6-6V832.77" transform="translate(0 34.31)"/><polyline class="cls-6" points="790.73 885.2 860.15 815.77 929.58 885.2"/><path class="cls-6" d="M848.08,866h24.15a6,6,0,0,1,6,6v42.26H842V872A6,6,0,0,1,848.08,866Z" transform="translate(0 34.31)"/><circle class="cls-6" cx="860.15" cy="864.07" r="12.07"/><path class="cls-7" d="M487.37,314V214.7s13.06,8.61,11.47,62.77h-10.2" transform="translate(0 34.31)"/><line class="cls-7" x1="457.92" y1="349.7" x2="457.92" y2="247.63"/><path class="cls-7" d="M444.86,213.32v21.76a11.62,11.62,0,0,0,.11,1.67A18.22,18.22,0,0,0,446.5,242a12.8,12.8,0,0,0,20.16,3.8c2.45-2.44,3.37-6.22,3.37-10.14V213.32" transform="translate(0 34.31)"/><path class="cls-7" d="M470.44,193.16a68.86,68.86,0,0,0-13.55,136.37l15.38,35.71,13.63-36.12a68.86,68.86,0,0,0-15.46-136Z" transform="translate(0 34.31)"/><line class="cls-8" x1="470.44" y1="420.34" x2="477.04" y2="420.31"/><line class="cls-9" x1="489.86" y1="420.25" x2="714.24" y2="419.2"/><polyline class="cls-8" points="720.65 419.17 727.25 419.14 727.27 425.74"/><line class="cls-10" x1="727.3" y1="438.73" x2="728.78" y2="951.76"/><polyline class="cls-8" points="728.8 958.25 728.82 964.85 735.42 964.85"/><line class="cls-11" x1="748.57" y1="964.85" x2="847.23" y2="964.85"/><line class="cls-8" x1="853.81" y1="964.85" x2="860.41" y2="964.85"/><path class="cls-12" d="M683,904.14s33,22.68,46,22.68c11.66,0,14.9-56.38,14.9-56.38" transform="translate(0 34.31)"/><path class="cls-12" d="M688.86,886.64S713.48,932,729,926.82c17.9-6,25.92-63.5,25.92-63.5" transform="translate(0 34.31)"/><path class="cls-13" d="M648.38,866.84q0,.33.06.66c.13,3.32,3.25,31,8.15,36.56l.09.05,1.78,2.65A8.82,8.82,0,0,0,664,910.5c6.41,1.31,19.69,3,25.07-3.63a9.09,9.09,0,0,0,1.78-4.08c.12-.68.38-1.7.51-2.44,1.13-6.18,4.94-19.57,17-22.55a53.8,53.8,0,0,1,23.19-1.16l.4.08A18.79,18.79,0,0,0,750.26,870a31.4,31.4,0,0,1,19.06-9s14.7-2,22.12-2.95a2.77,2.77,0,0,0,2-4.11c-5.8-10.53-23.37-40.12-39.7-43.73l-.44-.11c-2.81-.81-36-9.85-70.69,3.79a10.45,10.45,0,0,0-1,.44C677.21,816.75,644.6,835.28,648.38,866.84Z" transform="translate(0 34.31)"/><path class="cls-14" d="M678.49,846.65l-.33.05-1.55.54-18.35,2.94c-.33-.23-.52.34-.52.34l.46,2.87c.51,3.18,3,4.57,7.11,3.92L679.76,855a2.8,2.8,0,0,1,3.24,2.73,2.86,2.86,0,0,1-2.45,2.82l-16.06,2.57a.52.52,0,0,0-.44.47l-1.4,15.69a.5.5,0,0,0,.16.43.51.51,0,0,0,.44.13l5.19-.83a3.2,3.2,0,0,0,2.62-2.86l.62-5.63,10.2-1.64a11.24,11.24,0,1,0-3.36-22.22" transform="translate(0 34.31)"/></g><path class="cls-15" d="M724,796.69H660.07a1.74,1.74,0,0,1-1.69-2.18l5.18-20.14H721l4.76,20.18A1.74,1.74,0,0,1,724,796.69Z" transform="translate(0 34.31)"/><path class="cls-16" d="M667.81,771.7h48.45a4.69,4.69,0,0,1,4.69,4.69v32.29a0,0,0,0,1,0,0H663.75a0,0,0,0,1,0,0V775.76A4.06,4.06,0,0,1,667.81,771.7Z"/><path class="cls-17" d="M675,737.91S674.16,725,692,725s17.62,12.87,17.62,12.87" transform="translate(0 34.31)"/><path class="cls-18" d="M696.3,747.7h-.18l-.86.16-10,0c-.16-.15-.3.14-.3.14v1.56c0,1.73,1.24,2.68,3.45,2.67l7.85,0a1.49,1.49,0,0,1,1.5,1.71,1.53,1.53,0,0,1-1.53,1.29l-8.73,0a.28.28,0,0,0-.27.21l-2,8.21a.29.29,0,0,0,0,.24.27.27,0,0,0,.22.11h2.82a1.73,1.73,0,0,0,1.63-1.31l.79-2.93,5.54,0a6,6,0,1,0,.06-12.06" transform="translate(0 34.31)"/></g></g></svg>