<svg xmlns="http://www.w3.org/2000/svg" viewBox="0 0 1273.19 690.03"><defs><style>.cls-1{fill:#f52f41;}.cls-2{fill:#00bded;}.cls-3{fill:#f77ee9;}.cls-4{fill:#fff;}.cls-5{fill:none;stroke:#f52f41;stroke-miterlimit:10;stroke-width:23.16px;}</style></defs><g id="Capa_2" data-name="Capa 2"><g id="Capa_1-2" data-name="Capa 1"><path class="cls-1" d="M80,0H1193.19a80,80,0,0,1,80,80v57.25a0,0,0,0,1,0,0H0a0,0,0,0,1,0,0V80A80,80,0,0,1,80,0Z"/><rect class="cls-2" y="137.25" width="1273.19" height="98.1"/><rect class="cls-3" y="234.65" width="1273.19" height="118.36"/><path class="cls-4" d="M125.7,66.17v6.57c0,15.66-9.63,25.92-25.2,25.92-17,0-27.27-12.6-27.27-28.17s10.44-28.17,27.45-28.17c13.59,0,19.44,6.84,19.44,6.84l-6.57,8.37s-4.5-4.77-13-4.77c-9.54,0-16.11,7.47-16.11,17.73s6.48,17.82,16,17.82c8.19,0,13-5.31,13.23-12.51v-.72H99.24V66.17Z"/><path class="cls-4" d="M152.25,68.78c-5,0-8.64,3.51-8.64,9.18V97.49h-10.8V59.69h6.75l1.53,5.58h.54c2-3.69,5.58-5.58,10.53-5.58h2.07v9.09Z"/><path class="cls-4" d="M196.62,59.69v37.8h-7.2l-1.89-5.13h-.45a13.2,13.2,0,0,1-11.7,6c-9.63,0-15.48-6.57-15.48-16.74v-22h10.8V80.75c0,4.86,2.43,8.55,7.29,8.55a7.68,7.68,0,0,0,7.83-7.74V59.69Z"/><path class="cls-4" d="M217.32,111.53h-10.8V59.69h6.93L215.07,65h.54s3.24-6.21,12.51-6.21c10,0,17.55,7.65,17.55,19.71,0,11.79-7.47,19.89-17.19,19.89-8.37,0-10.71-4.86-10.71-4.86h-.45Zm8.46-22c5.31,0,9-4.41,9-10.8s-3.69-11-9-11-9,4.23-9,11S220.56,89.48,225.78,89.48Z"/><path class="cls-4" d="M270.78,98.39c-10.89,0-19.8-7.65-19.8-19.62s8.91-20,19.8-20,19.71,7.92,19.71,20S281.58,98.39,270.78,98.39Zm9.09-19.8c0-6.75-3.87-11.25-9.09-11.25-5.4,0-9.18,4.5-9.18,11.25,0,6.93,3.78,11.25,9.18,11.25C276,89.84,279.87,85.52,279.87,78.59Z"/><path class="cls-4" d="M183.69,168.15V217h-9.86V176.79H163.49v-8.64Z"/><path class="cls-4" d="M116.92,287.76c3-3,3.91-4.88,3.91-7.82,0-3.83-2.93-7-7.91-7s-8.47,3-10.83,4.88l-5.22-7.9a25,25,0,0,1,17.2-6.6c11.89,0,18.41,7.09,18.41,15.4a16.51,16.51,0,0,1-5.54,13l-13.28,12.87h19.39v8.64H97.93v-7.09Z"/><path class="cls-4" d="M190.58,311.39c0,9.54-5.71,16.55-17.28,16.55-7.17,0-11.73-3-13.77-5.3l4.65-6a12.07,12.07,0,0,0,8.88,3.67c5.38,0,8.07-3.1,8.07-8.56v-1.63a12.68,12.68,0,0,1-9.62,4c-9,0-14.26-5.94-14.26-15.23v-19.8H167v19.06c0,4.4,2.2,7.74,6.6,7.74a7.1,7.1,0,0,0,7.5-6.76v-20h9.45Z"/><path class="cls-4" d="M236.53,282.31c10.27,0,17.36,5.7,17.36,15.15,0,9.94-8.15,16.7-18.58,16.7-10.84,0-20.21-6.51-20.21-24,0-16.22,7.83-26.4,20.7-26.4,11.08,0,15.81,6.11,15.81,6.11l-5.46,7.82c-2.36-2-4.89-4.56-10.27-4.56-5.78,0-9.61,3.58-9.61,12.06v1.06A14.11,14.11,0,0,1,236.53,282.31Zm-1.46,23c5.05,0,8.31-3.42,8.31-7.66s-3.18-7.41-8.15-7.41-8.39,3.18-8.72,7.5h-.08C227.24,302.76,230.58,305.28,235.07,305.28Z"/><path class="cls-4" d="M589.28,97.49H569.39v-54h19.89c17.1,0,28.08,11.16,28.08,27S606.38,97.49,589.28,97.49Zm-9-9.54h8.28c9.81,0,17.55-6.48,17.55-17.46,0-11.34-7.74-17.46-17.55-17.46h-8.28Z"/><path class="cls-4" d="M635.9,59.69v37.8H625.1V59.69Zm-8.82-6.93,4.5-13,12.33,1.17-9.72,11.88Z"/><path class="cls-4" d="M675.77,59.69h7.11v37.8h-7.11l-1.71-5.22h-.45s-3.06,6.12-12.33,6.12c-10,0-17.64-7.65-17.64-19.71,0-11.79,7.56-19.89,17.55-19.89,9.36,0,12.42,6.12,12.42,6.12h.45Zm-12.24,8c-5.22,0-8.91,4.41-8.91,10.8s3.69,11,8.91,11c5.4,0,9.18-4.23,9.18-11S668.93,67.7,663.53,67.7Z"/><path class="cls-4" d="M997.67,97.58V75.08H972.84v22.5H962V43.49h10.89V66.17h24.83V43.49h11V97.58Z"/><path class="cls-4" d="M1036.29,98.39c-10.89,0-19.8-7.65-19.8-19.62s8.91-20,19.8-20,19.7,7.92,19.7,20S1047.09,98.39,1036.29,98.39Zm9.09-19.8c0-6.75-3.87-11.25-9.09-11.25-5.4,0-9.18,4.5-9.18,11.25,0,6.93,3.78,11.25,9.18,11.25C1041.51,89.84,1045.38,85.52,1045.38,78.59Z"/><path class="cls-4" d="M1083.08,68.78c-5,0-8.64,3.51-8.64,9.18V97.49h-10.79V59.69h6.74l1.53,5.58h.54c2-3.69,5.58-5.58,10.53-5.58h2.07v9.09Z"/><path class="cls-4" d="M1120.52,59.69h7.11v37.8h-7.11l-1.71-5.22h-.45s-3.06,6.12-12.33,6.12c-10,0-17.63-7.65-17.63-19.71,0-11.79,7.55-19.89,17.54-19.89,9.36,0,12.42,6.12,12.42,6.12h.45Zm-12.24,8c-5.22,0-8.91,4.41-8.91,10.8s3.69,11,8.91,11c5.4,0,9.18-4.23,9.18-11S1113.68,67.7,1108.28,67.7Z"/><path class="cls-4" d="M1156.88,68.78c-5,0-8.64,3.51-8.64,9.18V97.49h-10.8V59.69h6.75l1.53,5.58h.54c2-3.69,5.58-5.58,10.53-5.58h2.07v9.09Z"/><path class="cls-4" d="M1164.17,47.63a6.08,6.08,0,0,1,6.3-6.21,6.15,6.15,0,0,1,6.39,6.21,6.08,6.08,0,0,1-6.39,6.12A6,6,0,0,1,1164.17,47.63Zm11.61,12.06v37.8H1165V59.69Z"/><path class="cls-4" d="M1203.23,98.39c-10.89,0-19.8-7.65-19.8-19.62s8.91-20,19.8-20,19.71,7.92,19.71,20S1214,98.39,1203.23,98.39Zm9.09-19.8c0-6.75-3.87-11.25-9.09-11.25-5.4,0-9.18,4.5-9.18,11.25,0,6.93,3.78,11.25,9.18,11.25C1208.45,89.84,1212.32,85.52,1212.32,78.59Z"/><path class="cls-2" d="M0,353H1273.19a0,0,0,0,1,0,0V610a80,80,0,0,1-80,80H80A80,80,0,0,1,0,610V353A0,0,0,0,1,0,353Z"/><path class="cls-4" d="M505.32,202.7h-3.91L489,186.41V217h-9.78V168.15h7.83l16.29,21.92,16.3-21.92h7.74l.08,48.89H517.7V186.41Z"/><path class="cls-4" d="M536.77,171.9a5.51,5.51,0,0,1,5.71-5.62,5.56,5.56,0,0,1,5.78,5.62,5.5,5.5,0,0,1-5.78,5.54A5.44,5.44,0,0,1,536.77,171.9Zm10.51,10.92V217h-9.77V182.82Z"/><path class="cls-4" d="M572.62,218c-11.49,0-18.33-7.74-18.33-18.09s6.84-17.92,17-17.92,16,6.76,16,17c0,1-.08,2.68-.08,2.68H563.74c.57,5.87,4.08,8.56,9.54,8.56a14.67,14.67,0,0,0,8.79-2.85l3.43,6.43S581.34,218,572.62,218ZM564,195.94h13.69c-.41-4.16-2.69-6.6-6.69-6.6C567.41,189.34,564.8,191.46,564,195.94Zm4.15-19.39,4.08-11.82,11.16,1.06-8.8,10.76Z"/><path class="cls-4" d="M611.41,191.05c-4.56,0-7.82,3.18-7.82,8.31V217h-9.78V182.82h6.11l1.39,5.05h.48c1.8-3.34,5.06-5.05,9.54-5.05h1.87v8.23Z"/><path class="cls-4" d="M616.14,199.93c0-10.35,7.17-17.92,18-17.92,7.34,0,10.76,3.09,10.76,3.09l-2.53,7a14.89,14.89,0,0,0-7.33-2c-5.21,0-9,3.75-9,9.86s3.83,9.86,9,9.86a14.89,14.89,0,0,0,7.33-2l2.45,6.93s-3.42,3.18-10.68,3.18C623.31,217.86,616.14,210.28,616.14,199.93Z"/><path class="cls-4" d="M666.17,217.86c-9.86,0-17.93-6.93-17.93-17.77S656.31,182,666.17,182,684,189.18,684,200.09,676,217.86,666.17,217.86Zm8.23-17.93c0-6.11-3.51-10.18-8.23-10.18-4.89,0-8.31,4.07-8.31,10.18,0,6.28,3.42,10.19,8.31,10.19C670.89,210.12,674.4,206.21,674.4,199.93Z"/><path class="cls-4" d="M700.8,167.75V217H691V167.75Z"/><path class="cls-4" d="M726.06,218c-11.49,0-18.34-7.74-18.34-18.09S714.57,182,724.67,182s16,6.76,16,17c0,1-.08,2.68-.08,2.68H717.17c.57,5.87,4.08,8.56,9.54,8.56a14.68,14.68,0,0,0,8.8-2.85l3.42,6.43S734.77,218,726.06,218Zm-8.64-22.08h13.69c-.41-4.16-2.69-6.6-6.68-6.6C720.84,189.34,718.23,191.46,717.42,195.94Z"/><path class="cls-4" d="M759.46,210.69c3.83,0,5.22-1.22,5.22-2.94,0-5.54-19.15-2.28-19.15-15.31,0-5.87,4.56-10.43,13.69-10.43,9.78,0,14.91,3,14.91,3l-3,7.25a21.39,21.39,0,0,0-10.76-3c-3.18,0-5,.89-5,2.85,0,5.3,19.47,1.71,19.47,15.07,0,5.95-4.23,10.68-14.83,10.68-10.34,0-14.83-3.83-14.83-3.83l3.18-6.68A22.92,22.92,0,0,0,759.46,210.69Z"/><path class="cls-4" d="M505.32,308.11h-3.91L489,291.81v30.64h-9.78V273.56h7.83l16.29,21.92,16.3-21.92h7.74l.08,48.89H517.7V291.81Z"/><path class="cls-4" d="M536.77,277.31a5.51,5.51,0,0,1,5.71-5.62,5.56,5.56,0,0,1,5.78,5.62,5.5,5.5,0,0,1-5.78,5.54A5.44,5.44,0,0,1,536.77,277.31Zm10.51,10.92v34.22h-9.77V288.23Z"/><path class="cls-4" d="M572.62,323.43c-11.49,0-18.33-7.74-18.33-18.09s6.84-17.93,17-17.93,16,6.76,16,17c0,1-.08,2.69-.08,2.69H563.74c.57,5.87,4.08,8.56,9.54,8.56a14.64,14.64,0,0,0,8.79-2.86l3.43,6.44S581.34,323.43,572.62,323.43ZM564,301.35h13.69c-.41-4.16-2.69-6.61-6.69-6.61C567.41,294.74,564.8,296.86,564,301.35Zm4.15-19.4,4.08-11.81,11.16,1.06L574.58,282Z"/><path class="cls-4" d="M611.41,296.46c-4.56,0-7.82,3.17-7.82,8.31v17.68h-9.78V288.23h6.11l1.39,5h.48c1.8-3.34,5.06-5,9.54-5h1.87v8.23Z"/><path class="cls-4" d="M616.14,305.34c0-10.35,7.17-17.93,18-17.93,7.34,0,10.76,3.1,10.76,3.1l-2.53,7a14.89,14.89,0,0,0-7.33-2c-5.21,0-9,3.75-9,9.86s3.83,9.86,9,9.86a14.89,14.89,0,0,0,7.33-2l2.45,6.93s-3.42,3.17-10.68,3.17C623.31,323.26,616.14,315.69,616.14,305.34Z"/><path class="cls-4" d="M666.17,323.26c-9.86,0-17.93-6.92-17.93-17.76s8.07-18.09,17.93-18.09S684,294.58,684,305.5,676,323.26,666.17,323.26Zm8.23-17.92c0-6.11-3.51-10.19-8.23-10.19-4.89,0-8.31,4.08-8.31,10.19,0,6.27,3.42,10.18,8.31,10.18C670.89,315.52,674.4,311.61,674.4,305.34Z"/><path class="cls-4" d="M700.8,273.15v49.3H691v-49.3Z"/><path class="cls-4" d="M726.06,323.43c-11.49,0-18.34-7.74-18.34-18.09s6.85-17.93,16.95-17.93,16,6.76,16,17c0,1-.08,2.69-.08,2.69H717.17c.57,5.87,4.08,8.56,9.54,8.56a14.65,14.65,0,0,0,8.8-2.86l3.42,6.44S734.77,323.43,726.06,323.43Zm-8.64-22.08h13.69c-.41-4.16-2.69-6.61-6.68-6.61C720.84,294.74,718.23,296.86,717.42,301.35Z"/><path class="cls-4" d="M759.46,316.09c3.83,0,5.22-1.22,5.22-2.93,0-5.54-19.15-2.28-19.15-15.32,0-5.86,4.56-10.43,13.69-10.43,9.78,0,14.91,3,14.91,3l-3,7.25a21.34,21.34,0,0,0-10.76-3c-3.18,0-5,.9-5,2.86,0,5.29,19.47,1.71,19.47,15.07,0,6-4.23,10.67-14.83,10.67-10.34,0-14.83-3.83-14.83-3.83l3.18-6.68A22.92,22.92,0,0,0,759.46,316.09Z"/><path class="cls-4" d="M527.28,429c5.78,0,8.47-2.94,8.55-10V388.63h9.86V420.9c-.08,9.78-5.54,17.76-18.09,17.76-8.71,0-12.79-4.4-12.87-4.48l4.73-7.9A12.78,12.78,0,0,0,527.28,429Z"/><path class="cls-4" d="M587.49,403.3v34.22H581l-1.71-4.64h-.4a12,12,0,0,1-10.6,5.46c-8.72,0-14-5.95-14-15.16V403.3H564v19.07c0,4.4,2.2,7.74,6.6,7.74a7,7,0,0,0,7.09-7V403.3Z"/><path class="cls-4" d="M612.75,438.5c-11.49,0-18.33-7.74-18.33-18.09s6.84-17.93,17-17.93,16,6.77,16,17c0,1-.08,2.68-.08,2.68H603.87c.57,5.87,4.08,8.56,9.53,8.56a14.68,14.68,0,0,0,8.8-2.85l3.43,6.43S621.47,438.5,612.75,438.5Zm-8.63-22.08H617.8c-.4-4.16-2.68-6.6-6.68-6.6C607.54,409.82,604.93,411.94,604.12,416.42Z"/><path class="cls-4" d="M639.4,403.3l7.25,19.88a8.36,8.36,0,0,1,.57,2.77h.49a8.52,8.52,0,0,1,.65-2.77l7.25-19.88h10.68L651,437.52H644L628.72,403.3Z"/><path class="cls-4" d="M686,438.5c-11.49,0-18.34-7.74-18.34-18.09s6.85-17.93,17-17.93,16,6.77,16,17c0,1-.08,2.68-.08,2.68H677.13c.57,5.87,4.07,8.56,9.53,8.56a14.68,14.68,0,0,0,8.8-2.85l3.42,6.43S694.73,438.5,686,438.5Zm-8.64-22.08h13.69c-.41-4.16-2.69-6.6-6.68-6.6C680.79,409.82,678.19,411.94,677.37,416.42Z"/><path class="cls-4" d="M719.42,431.17c3.82,0,5.21-1.23,5.21-2.94,0-5.54-19.15-2.28-19.15-15.32,0-5.86,4.56-10.43,13.69-10.43,9.78,0,14.91,3,14.91,3l-3,7.25a21.39,21.39,0,0,0-10.76-3c-3.18,0-5,.89-5,2.85,0,5.3,19.48,1.71,19.48,15.07,0,5.95-4.24,10.68-14.83,10.68-10.35,0-14.83-3.83-14.83-3.83l3.17-6.68A22.93,22.93,0,0,0,719.42,431.17Z"/><path class="cls-4" d="M527.28,527.47c5.78,0,8.47-2.94,8.55-10V487.13h9.86V519.4c-.08,9.78-5.54,17.76-18.09,17.76-8.71,0-12.79-4.4-12.87-4.48l4.73-7.9A12.78,12.78,0,0,0,527.28,527.47Z"/><path class="cls-4" d="M587.49,501.8V536H581l-1.71-4.64h-.4a12,12,0,0,1-10.6,5.46c-8.72,0-14-6-14-15.16V501.8H564v19.07c0,4.4,2.2,7.74,6.6,7.74a7,7,0,0,0,7.09-7V501.8Z"/><path class="cls-4" d="M612.75,537c-11.49,0-18.33-7.74-18.33-18.09s6.84-17.93,17-17.93,16,6.77,16,17c0,1-.08,2.68-.08,2.68H603.87c.57,5.87,4.08,8.56,9.53,8.56a14.68,14.68,0,0,0,8.8-2.85l3.43,6.43S621.47,537,612.75,537Zm-8.63-22.08H617.8c-.4-4.16-2.68-6.6-6.68-6.6C607.54,508.32,604.93,510.44,604.12,514.92Z"/><path class="cls-4" d="M639.4,501.8l7.25,19.88a8.36,8.36,0,0,1,.57,2.77h.49a8.52,8.52,0,0,1,.65-2.77l7.25-19.88h10.68L651,536H644L628.72,501.8Z"/><path class="cls-4" d="M686,537c-11.49,0-18.34-7.74-18.34-18.09s6.85-17.93,17-17.93,16,6.77,16,17c0,1-.08,2.68-.08,2.68H677.13c.57,5.87,4.07,8.56,9.53,8.56a14.68,14.68,0,0,0,8.8-2.85l3.42,6.43S694.73,537,686,537Zm-8.64-22.08h13.69c-.41-4.16-2.69-6.6-6.68-6.6C680.79,508.32,678.19,510.44,677.37,514.92Z"/><path class="cls-4" d="M719.42,529.67c3.82,0,5.21-1.23,5.21-2.94,0-5.54-19.15-2.28-19.15-15.32,0-5.86,4.56-10.43,13.69-10.43,9.78,0,14.91,3,14.91,3l-3,7.25a21.39,21.39,0,0,0-10.76-3c-3.18,0-5,.89-5,2.85,0,5.3,19.48,1.71,19.48,15.07,0,6-4.24,10.68-14.83,10.68-10.35,0-14.83-3.83-14.83-3.83l3.17-6.68A22.93,22.93,0,0,0,719.42,529.67Z"/><path class="cls-4" d="M514,618.78l14,38,14.1-38h10.51l-19.39,48.89H522.84l-19.39-48.89Z"/><path class="cls-4" d="M556.08,622.53a5.51,5.51,0,0,1,5.71-5.62,5.57,5.57,0,0,1,5.78,5.62,5.51,5.51,0,0,1-5.78,5.54A5.44,5.44,0,0,1,556.08,622.53Zm10.51,10.92v34.22h-9.77V633.45Z"/><path class="cls-4" d="M591.93,668.65c-11.48,0-18.33-7.74-18.33-18.09s6.85-17.93,16.95-17.93,16,6.77,16,17c0,1-.08,2.69-.08,2.69H583.05c.57,5.87,4.08,8.56,9.54,8.56a14.72,14.72,0,0,0,8.8-2.85l3.42,6.43S600.65,668.65,591.93,668.65Zm-8.63-22.08H597c-.41-4.16-2.69-6.6-6.69-6.6C586.72,640,584.11,642.08,583.3,646.57Z"/><path class="cls-4" d="M630.72,641.68c-4.56,0-7.82,3.18-7.82,8.31v17.68h-9.78V633.45h6.11l1.39,5h.48c1.8-3.34,5.06-5,9.54-5h1.87v8.23Z"/><path class="cls-4" d="M638.05,667.67V633.45h6.11l1.39,4.8h.57c2.61-3.82,5.62-5.7,11.08-5.7,8.8,0,14.26,6,14.26,15.24v19.88h-9.78V648.6c0-4.15-2.52-7.49-6.92-7.49a6.82,6.82,0,0,0-6.93,7v19.56Z"/><path class="cls-4" d="M696.31,668.65c-11.49,0-18.33-7.74-18.33-18.09s6.84-17.93,16.95-17.93,16,6.77,16,17c0,1-.08,2.69-.08,2.69H687.43c.57,5.87,4.08,8.56,9.54,8.56a14.72,14.72,0,0,0,8.8-2.85l3.42,6.43S705,668.65,696.31,668.65Zm-8.63-22.08h13.69c-.41-4.16-2.69-6.6-6.69-6.6C691.1,640,688.49,642.08,687.68,646.57Z"/><path class="cls-4" d="M729.72,661.31c3.83,0,5.22-1.22,5.22-2.93,0-5.54-19.15-2.28-19.15-15.32,0-5.86,4.56-10.43,13.69-10.43,9.77,0,14.91,3,14.91,3l-3,7.25a21.28,21.28,0,0,0-10.75-3c-3.18,0-5,.9-5,2.86,0,5.29,19.47,1.71,19.47,15.07,0,6-4.24,10.67-14.83,10.67-10.35,0-14.83-3.83-14.83-3.83l3.18-6.68A22.87,22.87,0,0,0,729.72,661.31Z"/><line class="cls-5" x1="364.56" y1="113.99" x2="364.56" y2="690.03"/><line class="cls-5" x1="904.87" y1="113.99" x2="904.87" y2="690.03"/><line class="cls-5" x1="1273.19" y1="580.89" y2="580.89"/><line class="cls-5" x1="1273.19" y1="353.02" y2="353.02"/><path class="cls-4" d="M167.11,409.49l11.57-12.22H158.56v-8.64H191.8v7.42l-11.24,12.22c8.8,1.39,12.63,5.79,12.63,14.18s-5.95,15.89-19.4,15.89c-11.57,0-16.62-6.6-16.62-6.6l5.13-7.17a17,17,0,0,0,11.33,4.8c6.27,0,9-3.17,9-7.17s-2.69-6.76-9-6.76h-6.44Z"/><path class="cls-4" d="M179.82,498.18h9.05v29.74h7.66v8.56h-7.66v10.59H179V536.48H154v-7.25ZM179,527.92V512l-11.33,13.85a10.59,10.59,0,0,1-1.63,1.71v.32Z"/><path class="cls-4" d="M169.72,637.11a39.63,39.63,0,0,1,4.64-.24c13.61,0,19.15,6.19,19.15,15.24,0,9.29-6.11,16.46-19.31,16.46-11.33,0-16.7-6.69-16.7-6.69l5.13-7.17A17,17,0,0,0,174,659.52c5.94,0,9-2.77,9-7.17,0-4.15-3.1-7.25-11.08-7.25a29.68,29.68,0,0,0-10.52,1.63l-1-.73.73-27.22h29.58v8.64H170Z"/><path class="cls-4" d="M1018.25,273.56v48.89h-9.86V282.2H998v-8.64Z"/><path class="cls-4" d="M1060.7,273.56v7l-20.86,41.88h-11.33l20.54-40.25h-23.39v-8.64Z"/><path class="cls-4" d="M1070.23,288.88a4.64,4.64,0,1,1,2.45,9,4.66,4.66,0,0,1-5.71-3.26A4.6,4.6,0,0,1,1070.23,288.88Zm0,24.28a4.61,4.61,0,1,1,2.45,8.88,4.61,4.61,0,1,1-2.45-8.88Z"/><path class="cls-4" d="M1084.33,298c0-13.68,7.41-25.5,22-25.5s22,11.82,22,25.5-7.34,25.51-22,25.51S1084.33,311.69,1084.33,298Zm33.81,0c0-9.28-4-16.05-11.81-16.05s-11.9,6.77-11.9,16.05,4.08,16.06,11.9,16.06S1118.14,307.29,1118.14,298Z"/><path class="cls-4" d="M1134.85,298c0-13.68,7.41-25.5,22-25.5s22,11.82,22,25.5-7.34,25.51-22,25.51S1134.85,311.69,1134.85,298Zm33.81,0c0-9.28-4-16.05-11.81-16.05S1145,288.72,1145,298s4.08,16.06,11.9,16.06S1168.66,307.29,1168.66,298Z"/><path class="cls-4" d="M984.88,190c0-13.69,7.41-25.5,22-25.5s22,11.81,22,25.5-7.33,25.5-22,25.5S984.88,203.65,984.88,190Zm33.81,0c0-9.29-4-16.05-11.81-16.05S995,180.67,995,190s4.08,16,11.9,16S1018.69,199.25,1018.69,190Z"/><path class="cls-4" d="M1062.53,194v-1.06a14.38,14.38,0,0,1-10.26,3.91c-10.27,0-17.28-5.7-17.28-15.15,0-9.94,8.07-16.79,18.5-16.79,10.83,0,20.29,6.6,20.29,24.12,0,16.22-7.58,26.48-20.54,26.48-11.08,0-15.72-6.11-15.72-6.11l5.38-7.82c2.36,2,4.88,4.56,10.26,4.56C1059,206.09,1062.7,202.43,1062.53,194Zm-8.8-20.12c-5,0-8.23,3.34-8.23,7.65,0,4.16,3.1,7.42,8.15,7.42,4.89,0,8.39-3.18,8.64-7.5C1061.47,176.35,1058.29,173.83,1053.73,173.83Z"/><path class="cls-4" d="M1085.43,180.83a4.65,4.65,0,0,1,2.44,9,4.66,4.66,0,0,1-5.7-3.26A4.59,4.59,0,0,1,1085.43,180.83Zm0,24.28a4.61,4.61,0,1,1,2.44,8.89,4.61,4.61,0,1,1-2.44-8.89Z"/><path class="cls-4" d="M1099.53,190c0-13.69,7.41-25.5,22-25.5s22,11.81,22,25.5-7.34,25.5-22,25.5S1099.53,203.65,1099.53,190Zm33.81,0c0-9.29-4-16.05-11.81-16.05s-11.9,6.76-11.9,16.05,4.07,16,11.9,16S1133.34,199.25,1133.34,190Z"/><path class="cls-4" d="M1150.05,190c0-13.69,7.41-25.5,22-25.5s22,11.81,22,25.5-7.34,25.5-22,25.5S1150.05,203.65,1150.05,190Zm33.81,0c0-9.29-4-16.05-11.81-16.05s-11.9,6.76-11.9,16.05,4.07,16,11.9,16S1183.86,199.25,1183.86,190Z"/><path class="cls-4" d="M1018.25,496.8v48.89h-9.86V505.44H998V496.8Z"/><path class="cls-4" d="M1060.7,496.8v7l-20.86,41.88h-11.33l20.54-40.25h-23.39V496.8Z"/><path class="cls-4" d="M1070.23,512.12a4.74,4.74,0,0,1,5.71,3.26,4.65,4.65,0,0,1-9,2.45A4.6,4.6,0,0,1,1070.23,512.12Zm0,24.28a4.61,4.61,0,1,1,2.45,8.88,4.61,4.61,0,1,1-2.45-8.88Z"/><path class="cls-4" d="M1084.33,521.25c0-13.69,7.41-25.51,22-25.51s22,11.82,22,25.51-7.34,25.5-22,25.5S1084.33,534.94,1084.33,521.25Zm33.81,0c0-9.29-4-16.05-11.81-16.05s-11.9,6.76-11.9,16.05,4.08,16,11.9,16S1118.14,530.54,1118.14,521.25Z"/><path class="cls-4" d="M1134.85,521.25c0-13.69,7.41-25.51,22-25.51s22,11.82,22,25.51-7.34,25.5-22,25.5S1134.85,534.94,1134.85,521.25Zm33.81,0c0-9.29-4-16.05-11.81-16.05S1145,512,1145,521.25s4.08,16,11.9,16S1168.66,530.54,1168.66,521.25Z"/><path class="cls-4" d="M984.88,412.22c0-13.69,7.41-25.5,22-25.5s22,11.81,22,25.5-7.33,25.5-22,25.5S984.88,425.91,984.88,412.22Zm33.81,0c0-9.29-4-16.05-11.81-16.05S995,402.93,995,412.22s4.08,16,11.9,16S1018.69,421.51,1018.69,412.22Z"/><path class="cls-4" d="M1062.53,416.21v-1.06a14.38,14.38,0,0,1-10.26,3.91c-10.27,0-17.28-5.7-17.28-15.15,0-9.94,8.07-16.79,18.5-16.79,10.83,0,20.29,6.6,20.29,24.12,0,16.22-7.58,26.48-20.54,26.48-11.08,0-15.72-6.11-15.72-6.11l5.38-7.82c2.36,2,4.88,4.56,10.26,4.56C1059,428.35,1062.7,424.69,1062.53,416.21Zm-8.8-20.12c-5,0-8.23,3.34-8.23,7.65,0,4.16,3.1,7.42,8.15,7.42,4.89,0,8.39-3.18,8.64-7.5C1061.47,398.61,1058.29,396.09,1053.73,396.09Z"/><path class="cls-4" d="M1085.43,403.09a4.65,4.65,0,0,1,2.44,9,4.66,4.66,0,0,1-5.7-3.26A4.59,4.59,0,0,1,1085.43,403.09Zm0,24.28a4.61,4.61,0,1,1,2.44,8.89,4.61,4.61,0,1,1-2.44-8.89Z"/><path class="cls-4" d="M1099.53,412.22c0-13.69,7.41-25.5,22-25.5s22,11.81,22,25.5-7.34,25.5-22,25.5S1099.53,425.91,1099.53,412.22Zm33.81,0c0-9.29-4-16.05-11.81-16.05s-11.9,6.76-11.9,16.05,4.07,16,11.9,16S1133.34,421.51,1133.34,412.22Z"/><path class="cls-4" d="M1150.05,412.22c0-13.69,7.41-25.5,22-25.5s22,11.81,22,25.5-7.34,25.5-22,25.5S1150.05,425.91,1150.05,412.22Zm33.81,0c0-9.29-4-16.05-11.81-16.05s-11.9,6.76-11.9,16.05,4.07,16,11.9,16S1183.86,421.51,1183.86,412.22Z"/><path class="cls-4" d="M984.88,643.23c0-13.69,7.41-25.51,22-25.51s22,11.82,22,25.51-7.33,25.5-22,25.5S984.88,656.91,984.88,643.23Zm33.81,0c0-9.29-4-16.06-11.81-16.06S995,633.94,995,643.23s4.08,16,11.9,16S1018.69,652.52,1018.69,643.23Z"/><path class="cls-4" d="M1062.53,647.22v-1.06a14.42,14.42,0,0,1-10.26,3.91c-10.27,0-17.28-5.7-17.28-15.16,0-9.94,8.07-16.78,18.5-16.78,10.83,0,20.29,6.6,20.29,24.12,0,16.21-7.58,26.48-20.54,26.48-11.08,0-15.72-6.11-15.72-6.11l5.38-7.82c2.36,2,4.88,4.56,10.26,4.56C1059,659.36,1062.7,655.69,1062.53,647.22Zm-8.8-20.13c-5,0-8.23,3.34-8.23,7.66,0,4.16,3.1,7.42,8.15,7.42,4.89,0,8.39-3.18,8.64-7.5C1061.47,629.62,1058.29,627.09,1053.73,627.09Z"/><path class="cls-4" d="M1085.43,634.1a4.64,4.64,0,0,1,2.44,9,4.64,4.64,0,0,1-5.7-3.26A4.59,4.59,0,0,1,1085.43,634.1Zm0,24.28a4.6,4.6,0,1,1,2.44,8.88,4.6,4.6,0,1,1-2.44-8.88Z"/><path class="cls-4" d="M1099.53,643.23c0-13.69,7.41-25.51,22-25.51s22,11.82,22,25.51-7.34,25.5-22,25.5S1099.53,656.91,1099.53,643.23Zm33.81,0c0-9.29-4-16.06-11.81-16.06s-11.9,6.77-11.9,16.06,4.07,16,11.9,16S1133.34,652.52,1133.34,643.23Z"/><path class="cls-4" d="M1150.05,643.23c0-13.69,7.41-25.51,22-25.51s22,11.82,22,25.51-7.34,25.5-22,25.5S1150.05,656.91,1150.05,643.23Zm33.81,0c0-9.29-4-16.06-11.81-16.06s-11.9,6.77-11.9,16.06,4.07,16,11.9,16S1183.86,652.52,1183.86,643.23Z"/></g></g></svg>