<svg xmlns="http://www.w3.org/2000/svg" viewBox="0 0 596.44 595.68"><defs><style>.cls-1{fill:none;stroke:#fff;stroke-linecap:round;stroke-linejoin:round;stroke-width:18.86px;}</style></defs><title>Evento</title><g id="Capa_2" data-name="Capa 2"><g id="Capa_1-2" data-name="Capa 1"><line class="cls-1" x1="516.99" y1="134.46" x2="565.69" y2="176.52"/><line class="cls-1" x1="516.99" y1="176.52" x2="565.69" y2="127.82"/><line class="cls-1" x1="393.69" y1="37.1" x2="442.38" y2="79.16"/><line class="cls-1" x1="393.69" y1="79.16" x2="442.38" y2="30.46"/><line class="cls-1" x1="149.31" y1="16.07" x2="198.01" y2="58.13"/><line class="cls-1" x1="149.31" y1="58.13" x2="198.01" y2="9.43"/><line class="cls-1" x1="41.57" y1="100.12" x2="90.27" y2="142.18"/><line class="cls-1" x1="41.57" y1="142.18" x2="90.27" y2="93.48"/><path class="cls-1" d="M377.54,273.92S406.32,183.16,486,155.49"/><path class="cls-1" d="M335.48,203.08S322.2,74.69,218.16,50.34"/><path class="cls-1" d="M120.76,126.71s140.1-.4,179.63,168.59"/><circle class="cls-1" cx="300.39" cy="382.38" r="56.28"/><circle class="cls-1" cx="469.67" cy="412.15" r="56.28"/><circle class="cls-1" cx="133.2" cy="412.15" r="56.28"/><path class="cls-1" d="M9.43,586.25s32.18-93.19,123.77-93.19c0,0,74.86-13.28,110.9,86.33"/><path class="cls-1" d="M352.33,581.64s32.18-93.19,123.78-93.19c0,0,74.85-13.28,110.89,86.33"/><path class="cls-1" d="M391.17,512.61s-29.06-44.17-90.78-44.17-89.82,44.17-89.82,44.17"/></g></g></svg>