<svg xmlns="http://www.w3.org/2000/svg" viewBox="0 0 977.05 1037.22"><defs><style>.cls-1,.cls-10,.cls-12,.cls-4{fill:#fff;}.cls-2{fill:#00bded;stroke-width:17.05px;}.cls-10,.cls-12,.cls-2,.cls-4,.cls-6{stroke:#f52f41;}.cls-10,.cls-12,.cls-2,.cls-4,.cls-5,.cls-6{stroke-miterlimit:10;}.cls-3{fill:#f52f41;}.cls-4{stroke-width:2.65px;}.cls-5{fill:none;stroke:#273239;stroke-width:8.92px;}.cls-6,.cls-8{fill:#f9f9f9;}.cls-6{stroke-width:4px;}.cls-7{fill:#ed2f42;}.cls-9{fill:#f77ee9;}.cls-10{stroke-width:2.21px;}.cls-11{fill:#ade42e;}.cls-12{stroke-width:2.19px;}</style></defs><g id="Capa_2" data-name="Capa 2"><g id="Capa_1-2" data-name="Capa 1"><g id="Teléfono_móvil_plateado" data-name="Teléfono móvil plateado"><g id="Capa_1-3" data-name="Capa 1"><path class="cls-1" d="M128,31.63V40c0,20-12.3,33.12-32.2,33.12C74.07,73.14,61,57,61,37.15S74.3,1.15,96,1.15c17.37,0,24.84,8.74,24.84,8.74l-8.39,10.7s-5.75-6.1-16.56-6.1c-12.19,0-20.59,9.55-20.59,22.66S83.61,59.92,95.8,59.92c10.47,0,16.56-6.79,16.91-16V43H94.19V31.63Z"/><path class="cls-1" d="M161.93,35c-6.44,0-11,4.49-11,11.73v25h-13.8V23.35h8.62l2,7.13h.68c2.54-4.72,7.14-7.13,13.46-7.13h2.65V35Z"/><path class="cls-1" d="M218.62,23.35v48.3h-9.2L207,65.09h-.58c-2.3,3.34-6.44,7.71-15,7.71-12.3,0-19.78-8.4-19.78-21.39V23.35h13.8V50.26c0,6.21,3.11,10.92,9.32,10.92a9.8,9.8,0,0,0,10-9.89V23.35Z"/><path class="cls-1" d="M245.07,89.59h-13.8V23.35h8.85l2.07,6.78h.69s4.14-7.93,16-7.93c12.77,0,22.43,9.77,22.43,25.18,0,15.07-9.55,25.42-22,25.42-10.7,0-13.69-6.21-13.69-6.21h-.57Zm10.81-28.18c6.78,0,11.5-5.63,11.5-13.8s-4.72-14-11.5-14-11.5,5.41-11.5,14S249.21,61.41,255.88,61.41Z"/><path class="cls-1" d="M313.38,72.8c-13.92,0-25.3-9.78-25.3-25.07s11.38-25.53,25.3-25.53,25.18,10.12,25.18,25.53S327.18,72.8,313.38,72.8ZM325,47.5c0-8.63-4.94-14.38-11.61-14.38-6.9,0-11.73,5.75-11.73,14.38,0,8.85,4.83,14.37,11.73,14.37C320.05,61.87,325,56.35,325,47.5Z"/><path class="cls-1" d="M365.59,62.68c5.4,0,7.36-1.73,7.36-4.14,0-7.82-27-3.22-27-21.62,0-8.28,6.44-14.72,19.32-14.72,13.8,0,21.05,4.25,21.05,4.25L382,36.69a30.07,30.07,0,0,0-15.18-4.26c-4.48,0-7,1.27-7,4,0,7.47,27.48,2.41,27.48,21.27,0,8.4-6,15.07-20.93,15.07-14.61,0-20.93-5.41-20.93-5.41L349.94,58S357.19,62.68,365.59,62.68Z"/><path class="cls-1" d="M454.25,2.07h13.8V71.65H459L456.78,65h-.57s-3.91,7.82-15.76,7.82c-12.77,0-22.54-9.78-22.54-25.19,0-15.06,9.54-25.41,22.08-25.41,10.47,0,13.69,6.21,13.69,6.21h.57ZM443.33,33.58c-6.67,0-11.39,5.64-11.39,13.8s4.72,14,11.39,14c6.9,0,11.73-5.4,11.73-14S450.23,33.58,443.33,33.58Z"/><path class="cls-1" d="M503.7,73c-16.22,0-25.88-10.93-25.88-25.53s9.66-25.3,23.92-25.3,22.55,9.54,22.55,24c0,1.38-.12,3.8-.12,3.8h-33c.81,8.28,5.75,12.07,13.46,12.07a20.74,20.74,0,0,0,12.42-4l4.83,9.08S516,73,503.7,73ZM491.51,41.86h19.32c-.57-5.86-3.8-9.31-9.43-9.31C496.34,32.55,492.66,35.54,491.51,41.86Z"/><path class="cls-1" d="M582.13,35c-6.44,0-11,4.49-11,11.73v25h-13.8V23.35h8.62l2,7.13h.69c2.53-4.72,7.13-7.13,13.45-7.13h2.65V35Z"/><path class="cls-1" d="M630,23.35h9.08v48.3H630L627.78,65h-.57s-3.91,7.82-15.76,7.82c-12.76,0-22.54-9.78-22.54-25.19,0-15.06,9.66-25.41,22.43-25.41,12,0,15.87,7.82,15.87,7.82h.57ZM614.33,33.58c-6.67,0-11.39,5.64-11.39,13.8s4.72,14,11.39,14c6.9,0,11.73-5.4,11.73-14S621.23,33.58,614.33,33.58Z"/><path class="cls-1" d="M651.59,71.65V23.35h8.62l2,6.78h.8c3.68-5.4,7.94-8,15.64-8,12.42,0,20.13,8.51,20.13,21.51V71.65h-13.8V44.74c0-5.87-3.57-10.58-9.78-10.58a9.63,9.63,0,0,0-9.77,9.89v27.6Z"/><path class="cls-1" d="M739.33,44.39l18.4,27.26H741.06L728.64,53.13l-4,4.6V71.65h-13.8V2.07h13.8V42.9l15.76-19.55H757Z"/><path class="cls-1" d="M763.59,7.94a7.76,7.76,0,0,1,8-7.94,7.86,7.86,0,0,1,8.17,7.94c0,4.6-3.57,7.82-8.17,7.82A7.67,7.67,0,0,1,763.59,7.94Zm14.84,15.41v48.3h-13.8V23.35Z"/><path class="cls-1" d="M791.19,71.65V23.35h8.63l1.95,6.78h.81c3.68-5.4,7.93-8,15.64-8,12.42,0,20.13,8.51,20.13,21.51V71.65H824.54V44.74c0-5.87-3.56-10.58-9.77-10.58A9.63,9.63,0,0,0,805,44.05v27.6Z"/><path class="cls-1" d="M872.73,92.23c-10.47,0-16.45-4.14-19.32-7.36L860,76.36a17.06,17.06,0,0,0,12.54,5.18c7.36,0,11.38-4.49,11.38-12.77V66.24h-.57s-3,6.56-13.69,6.56c-12.53,0-22.08-10.35-22.08-25.42,0-15.41,9.78-25.18,22.54-25.18,12.19,0,16,8.51,16,8.51h.46l2.18-7.36h9V68.43C897.68,82.11,889.29,92.23,872.73,92.23ZM873,33.58c-6.67,0-11.39,5.87-11.39,14s4.72,13.8,11.39,13.8c6.9,0,11.73-5.29,11.73-13.8S879.86,33.58,873,33.58Z"/><path class="cls-2" d="M937.38,781.81H36.53c-24.64,0-37.22-29.56-20.15-47.32l78.54-81.7a14.69,14.69,0,0,1,10.59-4.51H875.87a14.66,14.66,0,0,1,10.59,4.52l73.35,76.41C978.77,749,964.77,781.81,937.38,781.81Z"/><path class="cls-2" d="M851.49,648.28H129.93a13.06,13.06,0,0,1-9.42-22.11L223.77,518.76a13.1,13.1,0,0,1,9.42-4h515.2a13.06,13.06,0,0,1,9.42,4l103.1,107.41A13.06,13.06,0,0,1,851.49,648.28Z"/><path class="cls-2" d="M719.29,514.75h-457a14.78,14.78,0,0,1-10.65-25l99.95-104a14.76,14.76,0,0,1,10.65-4.54H619.49a14.79,14.79,0,0,1,10.66,4.55l99.8,104A14.78,14.78,0,0,1,719.29,514.75Z"/><path class="cls-3" d="M520.74,477.07v13.6H467.53V478.16l25.79-27.42q8.06-8.7,8.05-15.89c0-3-.89-5.35-2.66-6.91s-4.38-2.34-7.78-2.34q-9.92,0-20.57,7.51l-5.44-12.18a34,34,0,0,1,12-6.37,48.13,48.13,0,0,1,14.8-2.34q12.07,0,19.2,5.82T518,433.66a28.09,28.09,0,0,1-2.78,12.45,53.77,53.77,0,0,1-9.3,12.68l-17.52,18.28Z"/><path class="cls-4" d="M530,467.8v13.6H476.8V468.89l25.79-27.42q8.06-8.72,8.05-15.89,0-4.57-2.66-6.91t-7.78-2.34q-9.9,0-20.57,7.51l-5.44-12.19a34.16,34.16,0,0,1,12-6.36A48.13,48.13,0,0,1,501,403q12.07,0,19.2,5.82t7.13,15.61a28.13,28.13,0,0,1-2.77,12.46,53.85,53.85,0,0,1-9.31,12.68L497.69,467.8Z"/><path class="cls-3" d="M522.7,723.08v13.17H512.14v14.14H495.49V736.25H463V723.63l35.58-50.71h13.6v50.16Zm-44.18,0h17V698.71Z"/><path class="cls-4" d="M532,717.78V731H521.41V745.1H504.77V731H472.23V718.33l35.58-50.7h13.6v50.15Zm-44.18,0h17V693.41Z"/><path class="cls-2" d="M593.44,381.21H388.38a13.78,13.78,0,0,1-9.94-23.34l98.75-102.73c8-8.28,19.65-8.28,27.61,0l98.59,102.71A13.79,13.79,0,0,1,593.44,381.21Z"/><path class="cls-5" d="M431,290.28s56.85,39,79.15,39c20.06,0,25.63-97,25.63-97"/><path class="cls-5" d="M441.07,260.18s42.36,78,69.12,69.11C541,319,554.77,220.05,554.77,220.05"/><path class="cls-6" d="M371.45,226.11c0,.38.08.76.09,1.14.24,5.72,5.6,53.28,14,62.89l.14.1,3.07,4.55a15.21,15.21,0,0,0,9.5,6.43c11,2.26,33.86,5.24,43.13-6.25a15.41,15.41,0,0,0,3-7c.21-1.15.66-2.92.89-4.18,1.94-10.64,8.5-33.67,29.22-38.81a92.65,92.65,0,0,1,39.9-2l.69.13c2.47.53,19.41,3.51,31.54-11.6a54,54,0,0,1,32.79-15.38s25.29-3.54,38-5.08a4.77,4.77,0,0,0,3.51-7.07c-10-18.13-40.22-69-68.3-75.23l-.76-.19c-4.83-1.4-61.84-17-121.62,6.52a15.16,15.16,0,0,0-1.64.76C421,139.94,364.94,171.83,371.45,226.11Z"/><path class="cls-7" d="M423.23,191.39l-.55.09-2.67.91-31.57,5.06c-.57-.39-.9.59-.9.59l.79,4.94c.88,5.47,5.22,7.87,12.24,6.74l24.85-3.93a4.81,4.81,0,0,1,5.58,4.69,4.92,4.92,0,0,1-4.21,4.84l-27.63,4.43a.91.91,0,0,0-.76.81l-2.41,27a.88.88,0,0,0,.28.73.9.9,0,0,0,.75.23l8.93-1.43a5.52,5.52,0,0,0,4.51-4.93l1.07-9.69,17.53-2.81a19.33,19.33,0,1,0-5.77-38.22"/><path class="cls-3" d="M502,347.21h16.76v13.6H468.25v-13.6H485V302.27l-15.67,9.25V296.61l22.74-13.27H502Z"/><path class="cls-4" d="M509.92,340.58h16.76v13.6H476.2v-13.6H493V295.65l-15.67,9.25V290L500,276.72h9.89Z"/><path class="cls-8" d="M765,703.81c-3.61-6.57-14.56-25-24.7-27.23l-.29-.06c-1.74-.52-22.38-6.13-44,2.36a4.59,4.59,0,0,0-.6.27c-2.79,1.49-23.08,13-20.72,32.67,0,.14,0,.27,0,.41.08,2.07,2,19.28,5.07,22.76l.06,0,1.12,1.63a5.5,5.5,0,0,0,3.44,2.34c3.37.69,9.83,1.58,13.75-.74,4.26,2.77,12.29,7.76,19.08,10.51a22.07,22.07,0,0,0,7.66,2,1,1,0,0,0,.36,0,.37.37,0,0,0,.14,0,8,8,0,0,0,2.36-1.24c9.61-6.81,14-33.48,14.78-39A19.43,19.43,0,0,1,750,708.2s9.15-1.27,13.76-1.83A1.72,1.72,0,0,0,765,703.81Zm-75.82,10.31-.37,3.5a2.06,2.06,0,0,1-1.64,1.8l-3.23.51a.51.51,0,0,1-.29-.08.33.33,0,0,1-.08-.27l.87-9.77a.31.31,0,0,1,.27-.29l10-1.61a1.75,1.75,0,0,0,1.51-1.74,1.72,1.72,0,0,0-2-1.7l-9,1.41c-2.55.41-4.12-.46-4.43-2.43l-.29-1.8s.12-.35.33-.2l11.4-1.83,1-.33.2,0,0,0a7,7,0,0,1,8.07,6.25,7.07,7.07,0,0,1-6,7.58Zm11.35,21.82a6,6,0,0,0,.58-1.74c.06-.42.22-1.06.31-1.51s.24-1.24.43-2a99.11,99.11,0,0,0,7.56,10.56C706.19,739.48,703.06,737.55,700.56,735.94Zm25.75,10.62c-.47.64-.93,1-1.39,1a1.67,1.67,0,0,1-.31,0,.66.66,0,0,1-.2.11c-1.62.53-3.61-.19-5.74-1.72,0,0,0,0,0,0-5.11-3.67-11.16-12-15.38-19.13,1.55-3.46,4.22-7,8.78-8.12a33.59,33.59,0,0,1,14.43-.7,1,1,0,0,1,.24,0,12.69,12.69,0,0,0,5.64-.27C731.26,731.38,728.75,743.16,726.31,746.56Zm7.21-12.4a170.63,170.63,0,0,0,2.17-18.06,11.36,11.36,0,0,0,2.44-2.34,7.75,7.75,0,0,1,.75-.72A135.29,135.29,0,0,1,733.52,734.16Z"/><path class="cls-8" d="M725.28,750.72a5.86,5.86,0,0,1-1.91.29,11.3,11.3,0,0,1-6.11-2.24,22.07,22.07,0,0,0,7.66,2A1,1,0,0,0,725.28,750.72Z"/><path class="cls-8" d="M726.31,746.56c-.47.64-.93,1-1.39,1a1.67,1.67,0,0,1-.31,0A5.26,5.26,0,0,0,726.31,746.56Z"/><path class="cls-8" d="M885.8,703.81c-3.61-6.57-14.56-25-24.7-27.23l-.29-.06c-1.74-.52-22.38-6.13-44,2.36a4.59,4.59,0,0,0-.6.27c-2.79,1.49-23.08,13-20.72,32.67,0,.14,0,.27,0,.41.08,2.07,2,19.28,5.07,22.76l.06,0,1.12,1.63A5.5,5.5,0,0,0,805.2,739c3.37.69,9.83,1.58,13.75-.74C823.21,741,831.24,746,838,748.77a22.07,22.07,0,0,0,7.66,2,1,1,0,0,0,.36,0,.37.37,0,0,0,.14,0,8,8,0,0,0,2.36-1.24c9.61-6.81,14-33.48,14.78-39a19.43,19.43,0,0,1,7.44-2.29s9.15-1.27,13.76-1.83A1.72,1.72,0,0,0,885.8,703.81ZM810,714.12l-.37,3.5a2.06,2.06,0,0,1-1.64,1.8l-3.23.51a.51.51,0,0,1-.29-.08.33.33,0,0,1-.08-.27l.87-9.77a.31.31,0,0,1,.27-.29l10-1.61a1.75,1.75,0,0,0,1.51-1.74,1.72,1.72,0,0,0-2-1.7l-9,1.41c-2.55.41-4.12-.46-4.43-2.43l-.29-1.8s.12-.35.33-.2l11.4-1.83,1-.33.2,0,0,0a7,7,0,0,1,8.07,6.25,7.07,7.07,0,0,1-6,7.58Zm11.35,21.82a6,6,0,0,0,.58-1.74c.06-.42.22-1.06.31-1.51s.24-1.24.43-2a99.11,99.11,0,0,0,7.56,10.56C827,739.48,823.83,737.55,821.33,735.94Zm25.75,10.62c-.47.64-.93,1-1.39,1a1.67,1.67,0,0,1-.31,0,.66.66,0,0,1-.2.11c-1.62.53-3.61-.19-5.74-1.72,0,0,0,0,0,0-5.11-3.67-11.16-12-15.38-19.13,1.55-3.46,4.22-7,8.78-8.12a33.59,33.59,0,0,1,14.43-.7,1,1,0,0,1,.24,0,12.69,12.69,0,0,0,5.64-.27C852,731.38,849.52,743.16,847.08,746.56Zm7.21-12.4a170.63,170.63,0,0,0,2.17-18.06,11.36,11.36,0,0,0,2.44-2.34,7.75,7.75,0,0,1,.75-.72A135.29,135.29,0,0,1,854.29,734.16Z"/><path class="cls-8" d="M846.05,750.72a5.86,5.86,0,0,1-1.91.29,11.3,11.3,0,0,1-6.11-2.24,22.07,22.07,0,0,0,7.66,2A1,1,0,0,0,846.05,750.72Z"/><path class="cls-8" d="M847.08,746.56c-.47.64-.93,1-1.39,1a1.67,1.67,0,0,1-.31,0A5.26,5.26,0,0,0,847.08,746.56Z"/><path class="cls-8" d="M309.55,703.81c-3.6-6.57-14.55-25-24.7-27.23l-.29-.06c-1.74-.52-22.38-6.13-44,2.36a3.64,3.64,0,0,0-.6.27c-2.8,1.49-23.09,13-20.73,32.67,0,.14,0,.27,0,.41.09,2.07,2,19.28,5.08,22.76l.06,0,1.12,1.63A5.48,5.48,0,0,0,229,739c3.38.69,9.84,1.58,13.75-.74C247,741,255,746,261.79,748.77a22.07,22.07,0,0,0,7.66,2,1,1,0,0,0,.35,0,.48.48,0,0,0,.15,0,8.24,8.24,0,0,0,2.36-1.24c9.6-6.81,14-33.48,14.78-39a19.37,19.37,0,0,1,7.43-2.29s9.15-1.27,13.77-1.83A1.72,1.72,0,0,0,309.55,703.81Zm-75.81,10.31-.38,3.5a2,2,0,0,1-1.63,1.8l-3.23.51a.47.47,0,0,1-.29-.08.33.33,0,0,1-.09-.27l.87-9.77a.32.32,0,0,1,.27-.29l10-1.61a1.74,1.74,0,0,0,1.51-1.74,1.71,1.71,0,0,0-2-1.7l-9,1.41c-2.55.41-4.12-.46-4.43-2.43l-.29-1.8s.13-.35.33-.2l11.41-1.83,1-.33.21,0,0,0a7,7,0,1,1,2.09,13.83Zm11.34,21.82a5.67,5.67,0,0,0,.58-1.74c.06-.42.23-1.06.31-1.51s.25-1.24.44-2A97.52,97.52,0,0,0,254,741.28C250.71,739.48,247.59,737.55,245.08,735.94Zm25.76,10.62c-.48.64-.94,1-1.39,1a1.62,1.62,0,0,1-.31,0,.71.71,0,0,1-.21.11c-1.61.53-3.6-.19-5.73-1.72,0,0,0,0,0,0-5.12-3.67-11.16-12-15.39-19.13,1.56-3.46,4.23-7,8.78-8.12a33.62,33.62,0,0,1,14.43-.7,1.09,1.09,0,0,1,.25,0,12.65,12.65,0,0,0,5.63-.27C275.78,731.38,273.28,743.16,270.84,746.56Zm7.2-12.4a170.63,170.63,0,0,0,2.17-18.06,11.63,11.63,0,0,0,2.45-2.34,8.24,8.24,0,0,1,.74-.72A133.09,133.09,0,0,1,278,734.16Z"/><path class="cls-8" d="M269.8,750.72a5.8,5.8,0,0,1-1.9.29,11.3,11.3,0,0,1-6.11-2.24,22.07,22.07,0,0,0,7.66,2A1,1,0,0,0,269.8,750.72Z"/><path class="cls-8" d="M270.84,746.56c-.48.64-.94,1-1.39,1a1.62,1.62,0,0,1-.31,0A5.26,5.26,0,0,0,270.84,746.56Z"/><path class="cls-8" d="M197.75,703.81c-3.6-6.57-14.55-25-24.7-27.23l-.29-.06c-1.74-.52-22.38-6.13-44,2.36a4.06,4.06,0,0,0-.6.27c-2.8,1.49-23.09,13-20.73,32.67,0,.14,0,.27,0,.41.08,2.07,2,19.28,5.07,22.76l.06,0,1.12,1.63a5.5,5.5,0,0,0,3.43,2.34c3.38.69,9.84,1.58,13.75-.74C135.17,741,143.2,746,150,748.77a22.07,22.07,0,0,0,7.66,2,1,1,0,0,0,.35,0,.42.42,0,0,0,.15,0,8.11,8.11,0,0,0,2.36-1.24c9.6-6.81,14-33.48,14.78-39a19.43,19.43,0,0,1,7.43-2.29s9.15-1.27,13.77-1.83A1.72,1.72,0,0,0,197.75,703.81Zm-75.81,10.31-.38,3.5a2,2,0,0,1-1.63,1.8l-3.23.51a.49.49,0,0,1-.29-.08.33.33,0,0,1-.08-.27l.87-9.77a.31.31,0,0,1,.27-.29l10-1.61a1.75,1.75,0,0,0,1.52-1.74,1.72,1.72,0,0,0-2-1.7l-9,1.41c-2.54.41-4.12-.46-4.43-2.43l-.29-1.8s.13-.35.33-.2L125,699.62l1-.33.21,0,0,0a7,7,0,1,1,2.09,13.83Zm11.34,21.82a5.67,5.67,0,0,0,.58-1.74c.06-.42.23-1.06.31-1.51s.25-1.24.44-2a97.52,97.52,0,0,0,7.55,10.56C138.91,739.48,135.79,737.55,133.28,735.94ZM159,746.56c-.48.64-.93,1-1.39,1a1.62,1.62,0,0,1-.31,0,.71.71,0,0,1-.21.11c-1.61.53-3.6-.19-5.73-1.72,0,0,0,0,0,0-5.12-3.67-11.16-12-15.39-19.13,1.56-3.46,4.23-7,8.78-8.12a33.62,33.62,0,0,1,14.43-.7,1,1,0,0,1,.25,0,12.65,12.65,0,0,0,5.63-.27C164,731.38,161.48,743.16,159,746.56Zm7.2-12.4a171,171,0,0,0,2.18-18.06,11.6,11.6,0,0,0,2.44-2.34,8.24,8.24,0,0,1,.74-.72A133.09,133.09,0,0,1,166.24,734.16Z"/><path class="cls-8" d="M158,750.72a5.8,5.8,0,0,1-1.9.29,11.3,11.3,0,0,1-6.11-2.24,22.07,22.07,0,0,0,7.66,2A1,1,0,0,0,158,750.72Z"/><path class="cls-8" d="M159,746.56c-.48.64-.93,1-1.39,1a1.62,1.62,0,0,1-.31,0A5.26,5.26,0,0,0,159,746.56Z"/><path class="cls-8" d="M433.77,703.81c-3.6-6.57-14.55-25-24.7-27.23l-.29-.06c-1.74-.52-22.38-6.13-44,2.36a3.64,3.64,0,0,0-.6.27c-2.8,1.49-23.09,13-20.73,32.67,0,.14,0,.27,0,.41.09,2.07,2,19.28,5.08,22.76l.06,0,1.12,1.63a5.48,5.48,0,0,0,3.43,2.34c3.38.69,9.84,1.58,13.75-.74,4.27,2.77,12.3,7.76,19.09,10.51a22.07,22.07,0,0,0,7.66,2,1,1,0,0,0,.35,0,.48.48,0,0,0,.15,0,8.24,8.24,0,0,0,2.36-1.24c9.6-6.81,14-33.48,14.78-39a19.37,19.37,0,0,1,7.43-2.29s9.15-1.27,13.77-1.83A1.72,1.72,0,0,0,433.77,703.81ZM358,714.12l-.38,3.5a2,2,0,0,1-1.63,1.8l-3.23.51a.47.47,0,0,1-.29-.08.3.3,0,0,1-.08-.27l.87-9.77a.31.31,0,0,1,.26-.29l10-1.61a1.75,1.75,0,0,0,1.52-1.74,1.72,1.72,0,0,0-2-1.7l-9,1.41c-2.54.41-4.12-.46-4.43-2.43l-.29-1.8s.13-.35.33-.2L361,699.62l1-.33.21,0,0,0a7,7,0,1,1,2.09,13.83Zm11.34,21.82a5.67,5.67,0,0,0,.58-1.74c.06-.42.23-1.06.31-1.51s.25-1.24.44-2a97.52,97.52,0,0,0,7.55,10.56C374.93,739.48,371.81,737.55,369.3,735.94Zm25.76,10.62c-.48.64-.94,1-1.39,1a1.62,1.62,0,0,1-.31,0,.71.71,0,0,1-.21.11c-1.61.53-3.6-.19-5.73-1.72,0,0,0,0,0,0-5.12-3.67-11.16-12-15.39-19.13,1.56-3.46,4.23-7,8.78-8.12a33.62,33.62,0,0,1,14.43-.7,1.09,1.09,0,0,1,.25,0,12.65,12.65,0,0,0,5.63-.27C400,731.38,397.5,743.16,395.06,746.56Zm7.2-12.4a173.68,173.68,0,0,0,2.18-18.06,11.84,11.84,0,0,0,2.44-2.34,8.24,8.24,0,0,1,.74-.72A133.09,133.09,0,0,1,402.26,734.16Z"/><path class="cls-8" d="M394,750.72a5.8,5.8,0,0,1-1.9.29,11.3,11.3,0,0,1-6.11-2.24,22.07,22.07,0,0,0,7.66,2A1,1,0,0,0,394,750.72Z"/><path class="cls-8" d="M395.06,746.56c-.48.64-.94,1-1.39,1a1.62,1.62,0,0,1-.31,0A5.26,5.26,0,0,0,395.06,746.56Z"/><path class="cls-8" d="M652.81,703.81c-3.6-6.57-14.55-25-24.69-27.23l-.29-.06c-1.74-.52-22.39-6.13-44,2.36a4.06,4.06,0,0,0-.6.27c-2.8,1.49-23.08,13-20.72,32.67,0,.14,0,.27,0,.41.08,2.07,2,19.28,5.07,22.76l.06,0,1.12,1.63a5.5,5.5,0,0,0,3.44,2.34c3.37.69,9.83,1.58,13.74-.74,4.27,2.77,12.3,7.76,19.09,10.51a22.07,22.07,0,0,0,7.66,2,1,1,0,0,0,.35,0,.37.37,0,0,0,.15,0,8.11,8.11,0,0,0,2.36-1.24c9.61-6.81,14-33.48,14.78-39a19.43,19.43,0,0,1,7.43-2.29s9.15-1.27,13.77-1.83A1.72,1.72,0,0,0,652.81,703.81ZM577,714.12l-.37,3.5a2.07,2.07,0,0,1-1.64,1.8l-3.23.51a.49.49,0,0,1-.29-.08.33.33,0,0,1-.08-.27l.87-9.77a.31.31,0,0,1,.27-.29l10-1.61a1.75,1.75,0,0,0,1.51-1.74,1.72,1.72,0,0,0-2-1.7l-9,1.41c-2.54.41-4.12-.46-4.43-2.43l-.29-1.8s.13-.35.33-.2l11.41-1.83,1-.33.2,0,0,0a7,7,0,1,1,2.09,13.83Zm11.34,21.82a5.67,5.67,0,0,0,.58-1.74c.07-.42.23-1.06.31-1.51s.25-1.24.44-2a97.71,97.71,0,0,0,7.56,10.56C594,739.48,590.85,737.55,588.34,735.94Zm25.76,10.62c-.48.64-.93,1-1.39,1a1.62,1.62,0,0,1-.31,0,.61.61,0,0,1-.21.11c-1.61.53-3.6-.19-5.73-1.72,0,0,0,0,0,0-5.12-3.67-11.16-12-15.38-19.13,1.55-3.46,4.22-7,8.77-8.12a33.62,33.62,0,0,1,14.43-.7,1,1,0,0,1,.25,0,12.65,12.65,0,0,0,5.63-.27C619.05,731.38,616.54,743.16,614.1,746.56Zm7.2-12.4a168.38,168.38,0,0,0,2.18-18.06,11.6,11.6,0,0,0,2.44-2.34,7.75,7.75,0,0,1,.75-.72A134.29,134.29,0,0,1,621.3,734.16Z"/><path class="cls-8" d="M613.06,750.72a5.8,5.8,0,0,1-1.9.29,11.3,11.3,0,0,1-6.11-2.24,22.07,22.07,0,0,0,7.66,2A1,1,0,0,0,613.06,750.72Z"/><path class="cls-8" d="M614.1,746.56c-.48.64-.93,1-1.39,1a1.62,1.62,0,0,1-.31,0A5.26,5.26,0,0,0,614.1,746.56Z"/><path class="cls-8" d="M765,571.3c-3.61-6.56-14.56-25-24.7-27.22L740,544c-1.74-.52-22.38-6.13-44,2.36a4.59,4.59,0,0,0-.6.27c-2.79,1.49-23.08,13-20.72,32.67,0,.14,0,.27,0,.41.08,2.07,2,19.28,5.07,22.75,0,0,0,0,.06,0l1.12,1.63a5.5,5.5,0,0,0,3.44,2.34c3.37.68,9.83,1.57,13.75-.75,4.26,2.78,12.29,7.77,19.08,10.52a22.07,22.07,0,0,0,7.66,2,1,1,0,0,0,.36,0,.37.37,0,0,0,.14,0,8,8,0,0,0,2.36-1.25c9.61-6.81,14-33.47,14.78-38.94a19.42,19.42,0,0,1,7.44-2.3s9.15-1.26,13.76-1.82A1.73,1.73,0,0,0,765,571.3Zm-75.82,10.31-.37,3.5a2,2,0,0,1-1.64,1.8l-3.23.52a.51.51,0,0,1-.29-.08.34.34,0,0,1-.08-.27l.87-9.77a.3.3,0,0,1,.27-.29l10-1.62a1.74,1.74,0,0,0,1.51-1.74,1.71,1.71,0,0,0-2-1.69l-9,1.4c-2.55.42-4.12-.45-4.43-2.42l-.29-1.8s.12-.35.33-.21l11.4-1.82,1-.33.2,0,0,0a7,7,0,0,1,8.07,6.25,7.07,7.07,0,0,1-6,7.58Zm11.35,21.83a6,6,0,0,0,.58-1.74c.06-.42.22-1.06.31-1.51s.24-1.25.43-2a100.13,100.13,0,0,0,7.56,10.56C706.19,607,703.06,605.05,700.56,603.44Zm25.75,10.62c-.47.64-.93,1-1.39,1a1.67,1.67,0,0,1-.31,0,.47.47,0,0,1-.2.1c-1.62.54-3.61-.18-5.74-1.71,0,0,0,0,0,0-5.11-3.66-11.16-12-15.38-19.13,1.55-3.45,4.22-7,8.78-8.11a33.68,33.68,0,0,1,14.43-.71.69.69,0,0,1,.24.05,12.69,12.69,0,0,0,5.64-.27C731.26,598.88,728.75,610.66,726.31,614.06Zm7.21-12.4a170.63,170.63,0,0,0,2.17-18.06,11.36,11.36,0,0,0,2.44-2.34,7.75,7.75,0,0,1,.75-.72A135.29,135.29,0,0,1,733.52,601.66Z"/><path class="cls-8" d="M725.28,618.22a5.86,5.86,0,0,1-1.91.29,11.3,11.3,0,0,1-6.11-2.24,22.07,22.07,0,0,0,7.66,2A1,1,0,0,0,725.28,618.22Z"/><path class="cls-8" d="M726.31,614.06c-.47.64-.93,1-1.39,1a1.67,1.67,0,0,1-.31,0A5.45,5.45,0,0,0,726.31,614.06Z"/><path class="cls-8" d="M652.81,438.8c-3.6-6.56-14.55-25-24.69-27.22l-.29-.06c-1.74-.52-22.39-6.13-44,2.36a5.42,5.42,0,0,0-.6.26c-2.8,1.5-23.08,13-20.72,32.67,0,.15,0,.27,0,.42.08,2.07,2,19.27,5.07,22.75l.06,0,1.12,1.64a5.5,5.5,0,0,0,3.44,2.34c3.37.68,9.83,1.57,13.74-.75,4.27,2.78,12.3,7.77,19.09,10.52a22.07,22.07,0,0,0,7.66,2,1,1,0,0,0,.35,0,.27.27,0,0,0,.15-.05,7.88,7.88,0,0,0,2.36-1.24c9.61-6.81,14-33.47,14.78-38.94a19.26,19.26,0,0,1,7.43-2.3s9.15-1.26,13.77-1.82A1.73,1.73,0,0,0,652.81,438.8ZM577,449.11l-.37,3.5a2.05,2.05,0,0,1-1.64,1.8l-3.23.52a.49.49,0,0,1-.29-.08.35.35,0,0,1-.08-.27l.87-9.77a.3.3,0,0,1,.27-.29l10-1.62a1.74,1.74,0,1,0-.5-3.44l-9,1.41c-2.54.42-4.12-.45-4.43-2.42l-.29-1.8s.13-.35.33-.21l11.41-1.82,1-.33.2,0,0,0a7,7,0,1,1,2.09,13.83Zm11.34,21.82a5.52,5.52,0,0,0,.58-1.73c.07-.42.23-1.06.31-1.52s.25-1.24.44-2a98.7,98.7,0,0,0,7.56,10.56C594,474.47,590.85,472.55,588.34,470.93Zm25.76,10.63c-.48.64-.93,1-1.39,1a1.62,1.62,0,0,1-.31,0,.45.45,0,0,1-.21.1c-1.61.54-3.6-.18-5.73-1.72,0,0,0,0,0,0-5.12-3.66-11.16-12-15.38-19.13,1.55-3.46,4.22-7,8.77-8.11a33.71,33.71,0,0,1,14.43-.71,1,1,0,0,1,.25,0,12.34,12.34,0,0,0,5.63-.27C619.05,466.38,616.54,478.16,614.1,481.56Zm7.2-12.41a167.93,167.93,0,0,0,2.18-18,11.85,11.85,0,0,0,2.44-2.34,7.75,7.75,0,0,1,.75-.72A134.46,134.46,0,0,1,621.3,469.15Z"/><path class="cls-8" d="M613.06,485.72a6.08,6.08,0,0,1-1.9.29,11.3,11.3,0,0,1-6.11-2.24,22.07,22.07,0,0,0,7.66,2A1,1,0,0,0,613.06,485.72Z"/><path class="cls-8" d="M614.1,481.56c-.48.64-.93,1-1.39,1a1.62,1.62,0,0,1-.31,0A5.45,5.45,0,0,0,614.1,481.56Z"/><path class="cls-8" d="M437.91,438.8c-3.6-6.56-14.55-25-24.7-27.22l-.29-.06c-1.74-.52-22.38-6.13-44,2.36a4.71,4.71,0,0,0-.6.26c-2.8,1.5-23.09,13-20.73,32.67,0,.15,0,.27,0,.42.08,2.07,2,19.27,5.07,22.75l.06,0,1.12,1.64a5.48,5.48,0,0,0,3.43,2.34c3.38.68,9.84,1.57,13.75-.75,4.27,2.78,12.3,7.77,19.09,10.52a22.07,22.07,0,0,0,7.66,2,1,1,0,0,0,.35,0,.3.3,0,0,0,.15-.05,7.88,7.88,0,0,0,2.36-1.24c9.6-6.81,14-33.47,14.78-38.94a19.2,19.2,0,0,1,7.43-2.3s9.15-1.26,13.77-1.82A1.73,1.73,0,0,0,437.91,438.8ZM362.1,449.11l-.38,3.5a2,2,0,0,1-1.63,1.8l-3.23.52a.49.49,0,0,1-.29-.08.35.35,0,0,1-.08-.27l.87-9.77a.3.3,0,0,1,.26-.29l10-1.62a1.74,1.74,0,1,0-.49-3.44l-9,1.41c-2.54.42-4.12-.45-4.43-2.42l-.29-1.8s.13-.35.33-.21l11.41-1.82,1-.33.21,0,0,0a7,7,0,1,1,2.09,13.83Zm11.34,21.82a5.52,5.52,0,0,0,.58-1.73c.06-.42.23-1.06.31-1.52s.25-1.24.44-2a98.51,98.51,0,0,0,7.55,10.56C379.07,474.47,376,472.55,373.44,470.93Zm25.76,10.63c-.48.64-.93,1-1.39,1a1.62,1.62,0,0,1-.31,0,.5.5,0,0,1-.21.1c-1.61.54-3.6-.18-5.73-1.72,0,0,0,0,0,0-5.12-3.66-11.16-12-15.39-19.13,1.56-3.46,4.23-7,8.78-8.11a33.71,33.71,0,0,1,14.43-.71,1.09,1.09,0,0,1,.25,0,12.34,12.34,0,0,0,5.63-.27C404.15,466.38,401.64,478.16,399.2,481.56Zm7.2-12.41a170.53,170.53,0,0,0,2.18-18,12.11,12.11,0,0,0,2.44-2.34,8.24,8.24,0,0,1,.74-.72A133.26,133.26,0,0,1,406.4,469.15Z"/><path class="cls-8" d="M398.16,485.72a6.08,6.08,0,0,1-1.9.29,11.3,11.3,0,0,1-6.11-2.24,22.07,22.07,0,0,0,7.66,2A1,1,0,0,0,398.16,485.72Z"/><path class="cls-8" d="M399.2,481.56c-.48.64-.93,1-1.39,1a1.62,1.62,0,0,1-.31,0A5.45,5.45,0,0,0,399.2,481.56Z"/><path class="cls-8" d="M435.84,571.3c-3.6-6.56-14.55-25-24.7-27.22l-.29-.06c-1.74-.52-22.38-6.13-44,2.36a3.64,3.64,0,0,0-.6.27c-2.8,1.49-23.09,13-20.73,32.67,0,.14,0,.27,0,.41.09,2.07,2,19.28,5.08,22.75,0,0,0,0,.06,0l1.12,1.63a5.48,5.48,0,0,0,3.43,2.34c3.38.68,9.84,1.57,13.75-.75,4.27,2.78,12.3,7.77,19.09,10.52a22.07,22.07,0,0,0,7.66,2,1,1,0,0,0,.35,0,.42.42,0,0,0,.15,0,8.28,8.28,0,0,0,2.36-1.25c9.6-6.81,14-33.47,14.78-38.94a19.37,19.37,0,0,1,7.43-2.3s9.15-1.26,13.77-1.82A1.73,1.73,0,0,0,435.84,571.3ZM360,581.61l-.38,3.5a2,2,0,0,1-1.63,1.8l-3.23.52a.47.47,0,0,1-.29-.08.34.34,0,0,1-.08-.27l.87-9.77a.3.3,0,0,1,.26-.29l10-1.62a1.75,1.75,0,0,0,1.52-1.74,1.72,1.72,0,0,0-2-1.69l-9,1.4c-2.54.42-4.12-.45-4.43-2.42l-.29-1.8s.13-.35.33-.21l11.41-1.82,1-.33.21,0,0,0a7,7,0,1,1,2.09,13.83Zm11.34,21.83a5.67,5.67,0,0,0,.58-1.74c.06-.42.23-1.06.31-1.51s.25-1.25.44-2a98.51,98.51,0,0,0,7.55,10.56C377,607,373.88,605.05,371.37,603.44Zm25.76,10.62c-.48.64-.93,1-1.39,1a1.62,1.62,0,0,1-.31,0,.5.5,0,0,1-.21.1c-1.61.54-3.6-.18-5.73-1.71,0,0,0,0,0,0-5.12-3.66-11.16-12-15.39-19.13,1.56-3.45,4.23-7,8.78-8.11a33.71,33.71,0,0,1,14.43-.71.74.74,0,0,1,.25.05,12.65,12.65,0,0,0,5.63-.27C402.08,598.88,399.57,610.66,397.13,614.06Zm7.2-12.4a171,171,0,0,0,2.18-18.06,11.84,11.84,0,0,0,2.44-2.34,8.24,8.24,0,0,1,.74-.72A133.09,133.09,0,0,1,404.33,601.66Z"/><path class="cls-8" d="M396.09,618.22a5.8,5.8,0,0,1-1.9.29,11.3,11.3,0,0,1-6.11-2.24,22.07,22.07,0,0,0,7.66,2A1,1,0,0,0,396.09,618.22Z"/><path class="cls-8" d="M397.13,614.06c-.48.64-.93,1-1.39,1a1.62,1.62,0,0,1-.31,0A5.45,5.45,0,0,0,397.13,614.06Z"/><path class="cls-8" d="M313.69,571.3c-3.6-6.56-14.55-25-24.7-27.22l-.29-.06c-1.74-.52-22.38-6.13-44,2.36a3.64,3.64,0,0,0-.6.27c-2.8,1.49-23.09,13-20.73,32.67,0,.14,0,.27,0,.41.09,2.07,2,19.28,5.08,22.75,0,0,0,0,.06,0l1.12,1.63a5.48,5.48,0,0,0,3.43,2.34c3.38.68,9.84,1.57,13.75-.75,4.27,2.78,12.3,7.77,19.09,10.52a22.07,22.07,0,0,0,7.66,2,1,1,0,0,0,.35,0,.42.42,0,0,0,.15,0,8.28,8.28,0,0,0,2.36-1.25c9.6-6.81,14-33.47,14.78-38.94a19.37,19.37,0,0,1,7.43-2.3s9.15-1.26,13.77-1.82A1.73,1.73,0,0,0,313.69,571.3Zm-75.81,10.31-.38,3.5a2,2,0,0,1-1.63,1.8l-3.23.52a.47.47,0,0,1-.29-.08.3.3,0,0,1-.08-.27l.87-9.77a.3.3,0,0,1,.26-.29l10-1.62a1.75,1.75,0,0,0,1.52-1.74,1.72,1.72,0,0,0-2-1.69l-9,1.4c-2.54.42-4.12-.45-4.43-2.42l-.29-1.8s.13-.35.33-.21l11.41-1.82,1-.33.21,0,0,0a7,7,0,1,1,2.09,13.83Zm11.34,21.83a5.67,5.67,0,0,0,.58-1.74c.06-.42.23-1.06.31-1.51s.25-1.25.44-2a98.51,98.51,0,0,0,7.55,10.56C254.85,607,251.73,605.05,249.22,603.44ZM275,614.06c-.48.64-.93,1-1.39,1a1.62,1.62,0,0,1-.31,0,.5.5,0,0,1-.21.1c-1.61.54-3.6-.18-5.73-1.71,0,0,0,0,0,0-5.12-3.66-11.16-12-15.39-19.13,1.56-3.45,4.23-7,8.78-8.11a33.71,33.71,0,0,1,14.43-.71.74.74,0,0,1,.25.05,12.65,12.65,0,0,0,5.63-.27C279.92,598.88,277.42,610.66,275,614.06Zm7.2-12.4a173.68,173.68,0,0,0,2.18-18.06,11.84,11.84,0,0,0,2.44-2.34,8.24,8.24,0,0,1,.74-.72A133.09,133.09,0,0,1,282.18,601.66Z"/><path class="cls-8" d="M273.94,618.22a5.8,5.8,0,0,1-1.9.29,11.3,11.3,0,0,1-6.11-2.24,22.07,22.07,0,0,0,7.66,2A1,1,0,0,0,273.94,618.22Z"/><path class="cls-8" d="M275,614.06c-.48.64-.93,1-1.39,1a1.62,1.62,0,0,1-.31,0A5.45,5.45,0,0,0,275,614.06Z"/><path class="cls-8" d="M652.81,571.3c-3.6-6.56-14.55-25-24.69-27.22l-.29-.06c-1.74-.52-22.39-6.13-44,2.36a4.06,4.06,0,0,0-.6.27c-2.8,1.49-23.08,13-20.72,32.67,0,.14,0,.27,0,.41.08,2.07,2,19.28,5.07,22.75,0,0,0,0,.06,0l1.12,1.63a5.5,5.5,0,0,0,3.44,2.34c3.37.68,9.83,1.57,13.74-.75,4.27,2.78,12.3,7.77,19.09,10.52a22.07,22.07,0,0,0,7.66,2,1,1,0,0,0,.35,0,.37.37,0,0,0,.15,0,8.15,8.15,0,0,0,2.36-1.25c9.61-6.81,14-33.47,14.78-38.94a19.43,19.43,0,0,1,7.43-2.3s9.15-1.26,13.77-1.82A1.73,1.73,0,0,0,652.81,571.3ZM577,581.61l-.37,3.5a2.05,2.05,0,0,1-1.64,1.8l-3.23.52a.49.49,0,0,1-.29-.08.34.34,0,0,1-.08-.27l.87-9.77a.3.3,0,0,1,.27-.29l10-1.62a1.74,1.74,0,0,0,1.51-1.74,1.72,1.72,0,0,0-2-1.69l-9,1.4c-2.54.42-4.12-.45-4.43-2.42l-.29-1.8s.13-.35.33-.21l11.41-1.82,1-.33.2,0,0,0a7,7,0,1,1,2.09,13.83Zm11.34,21.83a5.67,5.67,0,0,0,.58-1.74c.07-.42.23-1.06.31-1.51s.25-1.25.44-2a98.7,98.7,0,0,0,7.56,10.56C594,607,590.85,605.05,588.34,603.44Zm25.76,10.62c-.48.64-.93,1-1.39,1a1.62,1.62,0,0,1-.31,0,.45.45,0,0,1-.21.1c-1.61.54-3.6-.18-5.73-1.71,0,0,0,0,0,0-5.12-3.66-11.16-12-15.38-19.13,1.55-3.45,4.22-7,8.77-8.11a33.71,33.71,0,0,1,14.43-.71.7.7,0,0,1,.25.05,12.65,12.65,0,0,0,5.63-.27C619.05,598.88,616.54,610.66,614.1,614.06Zm7.2-12.4a168.38,168.38,0,0,0,2.18-18.06,11.6,11.6,0,0,0,2.44-2.34,7.75,7.75,0,0,1,.75-.72A134.29,134.29,0,0,1,621.3,601.66Z"/><path class="cls-8" d="M613.06,618.22a5.8,5.8,0,0,1-1.9.29,11.3,11.3,0,0,1-6.11-2.24,22.07,22.07,0,0,0,7.66,2A1,1,0,0,0,613.06,618.22Z"/><path class="cls-8" d="M614.1,614.06c-.48.64-.93,1-1.39,1a1.62,1.62,0,0,1-.31,0A5.45,5.45,0,0,0,614.1,614.06Z"/><path class="cls-3" d="M518.58,591a19.26,19.26,0,0,1,3.65,11.92q0,10.23-7.73,16.1t-21,5.88a50.9,50.9,0,0,1-15.45-2.34,32.81,32.81,0,0,1-12-6.37L471.52,604q10.34,7.5,21.22,7.51,7.06,0,10.28-2.45t3.21-7.78q0-5.12-3.21-7.46t-10.28-2.34h-11.1V578.2h9.25q6.75,0,10-2.34c2.18-1.56,3.26-3.93,3.26-7.13s-1-5.62-2.88-7.29-4.66-2.5-8.21-2.5a29.73,29.73,0,0,0-10.23,1.91,40.66,40.66,0,0,0-10.23,5.6l-5.44-12.19a34.16,34.16,0,0,1,12-6.36,48.8,48.8,0,0,1,15-2.34,33.93,33.93,0,0,1,13.77,2.61,21,21,0,0,1,9.14,7.29,20.45,20.45,0,0,1,.05,21.92,18.21,18.21,0,0,1-8.92,6.8A19.3,19.3,0,0,1,518.58,591Z"/><path class="cls-4" d="M525.2,584.36a19.26,19.26,0,0,1,3.65,11.92q0,10.23-7.73,16.1t-21,5.87a51.21,51.21,0,0,1-15.45-2.33,33,33,0,0,1-12-6.37l5.44-12.19q10.35,7.51,21.22,7.51,7.08,0,10.28-2.45t3.21-7.78c0-3.4-1.07-5.89-3.21-7.45s-5.56-2.34-10.28-2.34h-11.1V571.58h9.25q6.75,0,10-2.34t3.27-7.13c0-3.19-1-5.62-2.89-7.29s-4.66-2.5-8.21-2.5a29.71,29.71,0,0,0-10.23,1.9,40.71,40.71,0,0,0-10.23,5.61l-5.44-12.19a34.16,34.16,0,0,1,12-6.36,48.81,48.81,0,0,1,15-2.34,33.88,33.88,0,0,1,13.76,2.61,21,21,0,0,1,9.14,7.29,20.45,20.45,0,0,1,.05,21.92,18.16,18.16,0,0,1-8.92,6.8A19.3,19.3,0,0,1,525.2,584.36Z"/><rect class="cls-9" x="172.6" y="808.16" width="105.17" height="105.17" rx="16.41"/><path class="cls-3" d="M237.72,858.5a18.17,18.17,0,0,1,7.27,7.32,22.27,22.27,0,0,1,2.6,10.9,21.5,21.5,0,0,1-3.05,11.5,20,20,0,0,1-8.72,7.64,30.82,30.82,0,0,1-13.23,2.68,38.76,38.76,0,0,1-12.22-2,27.69,27.69,0,0,1-9.77-5.28l4.54-10.17q8.64,6.27,17.63,6.27,11.37,0,11.36-10.09a9.91,9.91,0,0,0-2.95-7.59,11.27,11.27,0,0,0-8-2.77,18.45,18.45,0,0,0-6.41,1.18,19.72,19.72,0,0,0-5.77,3.27h-8.09V833.1H244.4V844H216.68v14.45A20,20,0,0,1,227,855.91,21.65,21.65,0,0,1,237.72,858.5Z"/><path class="cls-10" d="M245.47,854.07a18.23,18.23,0,0,1,7.27,7.32,22.3,22.3,0,0,1,2.59,10.91,21.57,21.57,0,0,1-3,11.49,20,20,0,0,1-8.73,7.64,30.65,30.65,0,0,1-13.22,2.68,38.77,38.77,0,0,1-12.23-2,27.84,27.84,0,0,1-9.77-5.27l4.54-10.18q8.64,6.27,17.64,6.27,11.35,0,11.36-10.09a9.91,9.91,0,0,0-3-7.59,11.32,11.32,0,0,0-8-2.77,18.73,18.73,0,0,0-6.41,1.18,19.65,19.65,0,0,0-5.77,3.28h-8.09V828.67h41.54v10.91H224.43V854a19.84,19.84,0,0,1,10.36-2.55A21.76,21.76,0,0,1,245.47,854.07Z"/><rect class="cls-11" x="173.15" y="932.98" width="104.05" height="104.05" rx="21.71" transform="translate(-6.07 1.41) rotate(-0.35)"/><path class="cls-3" d="M233.58,978.29a18.4,18.4,0,0,1,7,7.37,23,23,0,0,1,2.55,10.8,22.14,22.14,0,0,1-2.78,11.24,20.33,20.33,0,0,1-7.82,7.82,22.85,22.85,0,0,1-11.34,2.88q-12.57.08-19.41-8.21t-6.93-23.66A46.25,46.25,0,0,1,198,968.28a25.84,25.84,0,0,1,9.25-11.77,25.29,25.29,0,0,1,14.45-4.16,35.54,35.54,0,0,1,11.59,1.83,28.29,28.29,0,0,1,9.62,5.28l-4.55,10.16q-8.18-6.2-16-6.15a11.31,11.31,0,0,0-9.83,5.18q-3.5,5.13-3.8,15a14.94,14.94,0,0,1,6-5.78,18.13,18.13,0,0,1,8.72-2.18A19.33,19.33,0,0,1,233.58,978.29Zm-6.35,26.23a10.57,10.57,0,0,0,2.54-7.44,10.78,10.78,0,0,0-2.58-7.53,9,9,0,0,0-7-2.72,9.15,9.15,0,0,0-7,2.89,10.52,10.52,0,0,0-2.63,7.48,10.27,10.27,0,0,0,2.76,7.36,9.24,9.24,0,0,0,7,2.81A9,9,0,0,0,227.23,1004.52Z"/><path class="cls-12" d="M241.22,975a18.4,18.4,0,0,1,7,7.37,22.9,22.9,0,0,1,2.55,10.8,22.07,22.07,0,0,1-2.78,11.23,20.29,20.29,0,0,1-7.82,7.83,23,23,0,0,1-11.34,2.88q-12.57.07-19.41-8.21t-6.93-23.66A46.25,46.25,0,0,1,205.65,965a25.84,25.84,0,0,1,9.25-11.77A25.29,25.29,0,0,1,229.35,949a35.54,35.54,0,0,1,11.59,1.83,28.34,28.34,0,0,1,9.62,5.27L246,966.29q-8.17-6.19-16-6.15a11.32,11.32,0,0,0-9.83,5.17q-3.5,5.15-3.8,15a15,15,0,0,1,6-5.78,18.13,18.13,0,0,1,8.72-2.18A19.33,19.33,0,0,1,241.22,975Zm-6.35,26.23a10.53,10.53,0,0,0,2.54-7.44,10.74,10.74,0,0,0-2.58-7.53,9,9,0,0,0-7-2.72,9.17,9.17,0,0,0-7,2.89,10.47,10.47,0,0,0-2.62,7.48,10.18,10.18,0,0,0,2.76,7.36,9.2,9.2,0,0,0,7,2.81A8.94,8.94,0,0,0,234.87,1001.19Z"/><path class="cls-11" d="M333.85,981c0,7.36-4,12.34-10.05,14.63v.4l11.39,15.41v1.11h-8.62l-11.31-15.65H304v15.65h-7.83V965.1h19.53C326.81,965.1,333.85,971.11,333.85,981Zm-18.59-8.93H304v17.87h11.78c5.77,0,10-2.85,10-8.86S321.59,972.06,315.26,972.06Z"/><path class="cls-11" d="M341.2,968.58a4.78,4.78,0,1,1,4.74,4.66A4.63,4.63,0,0,1,341.2,968.58Zm8.62,10.75v33.21h-7.75V979.33Z"/><path class="cls-11" d="M383.5,964.7h7.75v47.84H386l-1.19-4.9h-.31s-2.85,5.69-11.55,5.69-15.5-6.8-15.5-17.39c0-10.36,6.65-17.4,15.26-17.4,8,0,10.44,4.67,10.44,4.67h.32ZM374.56,985c-5.37,0-9.25,4.5-9.25,11s3.88,11,9.25,11,9.41-4.19,9.41-11S379.86,985,374.56,985Z"/><path class="cls-11" d="M416.07,1013.49c-10.83,0-17.39-7.35-17.39-17.47s6.4-17.48,16.13-17.48,15.1,6.88,15.1,16.53c0,.71-.08,2-.08,2H406.27c.47,6.72,4.42,10,10.28,10a14.26,14.26,0,0,0,8.93-2.93l2.77,5.3S424.45,1013.49,416.07,1013.49ZM406.58,992h15.58c-.55-4.82-3.16-7.43-7.51-7.43S407.45,987,406.58,992Z"/><path class="cls-11" d="M452.92,985.74a8.08,8.08,0,0,0-8.15,8.14v18.66H437V979.33h5.06l.95,5.3h.4c1.74-3.48,5.06-5.38,9.49-5.38h1.82v6.49Z"/><path class="cls-11" d="M472.13,1007.4c4.51,0,6.17-1.58,6.17-3.79,0-6.25-19.77-2.93-19.77-15.26,0-5.46,4.19-9.81,12.89-9.81,9,0,13.84,2.85,13.84,2.85l-2.61,6a20.36,20.36,0,0,0-10.44-2.85c-3.95,0-6,1.19-6,3.56,0,6,19.92,2.21,19.92,15.1,0,5.46-3.87,10.12-13.75,10.12s-14-3.87-14-3.87l2.77-5.3A21.76,21.76,0,0,0,472.13,1007.4Z"/><path class="cls-11" d="M546.61,1012.54l-27.28-33.68v33.68H511.5V965.1h5.93l27.2,33.53V965.1h7.83v47.44Z"/><path class="cls-11" d="M593.73,979.33v33.21h-5.06l-1.34-4.58H587c-1.18,1.74-4.19,5.37-10.91,5.37-8.62,0-13.6-6-13.6-14.94V979.33h7.75v18.35c0,5.22,2.45,9.17,7.59,9.17a8,8,0,0,0,8.14-8.07V979.33Z"/><path class="cls-11" d="M618.56,1013.49c-10.84,0-17.4-7.35-17.4-17.47s6.41-17.48,16.13-17.48,15.11,6.88,15.11,16.53c0,.71-.08,2-.08,2H608.75c.48,6.72,4.43,10,10.28,10a14.27,14.27,0,0,0,8.94-2.93l2.76,5.3S626.94,1013.49,618.56,1013.49ZM609.07,992h15.58c-.56-4.82-3.17-7.43-7.52-7.43S609.94,987,609.07,992Z"/><path class="cls-11" d="M649.39,1012.54l-15-33.21h8.54l8.38,21.59a5.86,5.86,0,0,1,.63,2.45h.4a7.65,7.65,0,0,1,.63-2.45l8.38-21.59h8.54l-15,33.21Z"/><path class="cls-11" d="M688.93,1013.33c-9.41,0-17-6.72-17-17.24s7.59-17.55,17-17.55,17.08,7,17.08,17.55S698.34,1013.33,688.93,1013.33ZM698.42,996c0-6.88-4.19-11.31-9.49-11.31s-9.49,4.43-9.49,11.31,4.19,11.15,9.49,11.15S698.42,1002.9,698.42,996Z"/><path class="cls-11" d="M725.14,1007.4c4.51,0,6.17-1.58,6.17-3.79,0-6.25-19.77-2.93-19.77-15.26,0-5.46,4.19-9.81,12.89-9.81,9,0,13.83,2.85,13.83,2.85l-2.6,6a20.36,20.36,0,0,0-10.44-2.85c-4,0-6,1.19-6,3.56,0,6,19.92,2.21,19.92,15.1,0,5.46-3.87,10.12-13.75,10.12s-14-3.87-14-3.87l2.77-5.3A21.76,21.76,0,0,0,725.14,1007.4Z"/><path class="cls-11" d="M750.52,1003.21a5,5,0,1,1,0,10,5,5,0,0,1,0-10Zm-2.69-5.3-2-32.81H755l-1.9,32.81Z"/><path class="cls-1" d="M337.35,977.49c0,7.36-4,12.34-10.05,14.63v.4l11.39,15.41V1009h-8.62l-11.31-15.65h-11.3V1009h-7.83V961.6h19.53C330.31,961.6,337.35,967.61,337.35,977.49Zm-18.59-8.93h-11.3v17.87h11.78c5.77,0,10-2.85,10-8.86S325.09,968.56,318.76,968.56Z"/><path class="cls-1" d="M344.7,965.08a4.78,4.78,0,1,1,4.74,4.66A4.63,4.63,0,0,1,344.7,965.08Zm8.62,10.75V1009h-7.75V975.83Z"/><path class="cls-1" d="M387,961.2h7.75V1009h-5.22l-1.19-4.9H388s-2.85,5.69-11.55,5.69S361,1003,361,992.44c0-10.36,6.65-17.4,15.26-17.4,8,0,10.44,4.67,10.44,4.67H387Zm-8.94,20.25c-5.37,0-9.25,4.5-9.25,11s3.88,11,9.25,11,9.41-4.19,9.41-11S383.36,981.45,378.06,981.45Z"/><path class="cls-1" d="M419.57,1010c-10.83,0-17.39-7.35-17.39-17.47S408.58,975,418.31,975s15.1,6.88,15.1,16.53c0,.71-.08,2-.08,2H409.77c.47,6.72,4.42,10,10.28,10a14.26,14.26,0,0,0,8.93-2.93l2.77,5.3S428,1010,419.57,1010Zm-9.49-21.51h15.58c-.55-4.82-3.16-7.43-7.51-7.43S411,983.5,410.08,988.48Z"/><path class="cls-1" d="M456.42,982.24a8.08,8.08,0,0,0-8.15,8.14V1009h-7.75V975.83h5.06l.95,5.3h.4c1.74-3.48,5.06-5.38,9.49-5.38h1.82v6.49Z"/><path class="cls-1" d="M475.63,1003.9c4.51,0,6.17-1.58,6.17-3.79,0-6.25-19.77-2.93-19.77-15.26,0-5.46,4.19-9.81,12.89-9.81,9,0,13.84,2.85,13.84,2.85l-2.61,6a20.36,20.36,0,0,0-10.44-2.85c-3.95,0-6,1.19-6,3.56,0,6,19.92,2.21,19.92,15.1,0,5.46-3.87,10.12-13.75,10.12s-14-3.87-14-3.87l2.77-5.3A21.76,21.76,0,0,0,475.63,1003.9Z"/><path class="cls-1" d="M550.11,1009l-27.28-33.68V1009H515V961.6h5.93l27.2,33.53V961.6H556V1009Z"/><path class="cls-1" d="M597.23,975.83V1009h-5.06l-1.34-4.58h-.32c-1.18,1.74-4.19,5.37-10.91,5.37-8.62,0-13.6-6-13.6-14.94V975.83h7.75v18.35c0,5.22,2.45,9.17,7.59,9.17a8,8,0,0,0,8.14-8.07V975.83Z"/><path class="cls-1" d="M622.06,1010c-10.84,0-17.4-7.35-17.4-17.47S611.07,975,620.79,975s15.11,6.88,15.11,16.53c0,.71-.08,2-.08,2H612.25c.48,6.72,4.43,10,10.28,10a14.27,14.27,0,0,0,8.94-2.93l2.76,5.3S630.44,1010,622.06,1010Zm-9.49-21.51h15.58c-.56-4.82-3.17-7.43-7.52-7.43S613.44,983.5,612.57,988.48Z"/><path class="cls-1" d="M652.89,1009l-15-33.21h8.54l8.38,21.59a5.86,5.86,0,0,1,.63,2.45h.4a7.65,7.65,0,0,1,.63-2.45l8.38-21.59h8.54l-15,33.21Z"/><path class="cls-1" d="M692.43,1009.83c-9.41,0-17-6.72-17-17.24S683,975,692.43,975s17.08,7,17.08,17.55S701.84,1009.83,692.43,1009.83Zm9.49-17.31c0-6.88-4.19-11.31-9.49-11.31s-9.49,4.43-9.49,11.31,4.19,11.15,9.49,11.15S701.92,999.4,701.92,992.52Z"/><path class="cls-1" d="M728.64,1003.9c4.51,0,6.17-1.58,6.17-3.79,0-6.25-19.77-2.93-19.77-15.26,0-5.46,4.19-9.81,12.89-9.81,9,0,13.83,2.85,13.83,2.85l-2.6,6a20.36,20.36,0,0,0-10.44-2.85c-4,0-6,1.19-6,3.56,0,6,19.92,2.21,19.92,15.1,0,5.46-3.87,10.12-13.75,10.12s-14-3.87-14-3.87l2.77-5.3A21.76,21.76,0,0,0,728.64,1003.9Z"/><path class="cls-1" d="M754,999.71a5,5,0,0,1,0,10,5,5,0,0,1,0-10Zm-2.69-5.3-2-32.81h9.18l-1.9,32.81Z"/><path class="cls-9" d="M333.85,856.73c0,7.35-4,12.34-10.05,14.63v.39l11.39,15.42v1.11h-8.62l-11.31-15.66H304v15.66h-7.83V840.84h19.53C326.81,840.84,333.85,846.85,333.85,856.73Zm-18.59-8.93H304v17.87h11.78c5.77,0,10-2.85,10-8.86S321.59,847.8,315.26,847.8Z"/><path class="cls-9" d="M341.2,844.32a4.78,4.78,0,1,1,4.74,4.66A4.64,4.64,0,0,1,341.2,844.32Zm8.62,10.75v33.21h-7.75V855.07Z"/><path class="cls-9" d="M383.5,840.44h7.75v47.84H386l-1.19-4.9h-.31s-2.85,5.69-11.55,5.69-15.5-6.8-15.5-17.39c0-10.36,6.65-17.4,15.26-17.4,8,0,10.44,4.67,10.44,4.67h.32Zm-8.94,20.24c-5.37,0-9.25,4.51-9.25,11s3.88,11,9.25,11,9.41-4.19,9.41-11S379.86,860.68,374.56,860.68Z"/><path class="cls-9" d="M416.07,889.23c-10.83,0-17.39-7.35-17.39-17.48s6.4-17.47,16.13-17.47,15.1,6.88,15.1,16.53c0,.71-.08,2.05-.08,2.05H406.27c.47,6.72,4.42,10,10.28,10a14.29,14.29,0,0,0,8.93-2.92l2.77,5.3S424.45,889.23,416.07,889.23Zm-9.49-21.51h15.58c-.55-4.82-3.16-7.43-7.51-7.43S407.45,862.74,406.58,867.72Z"/><path class="cls-9" d="M452.92,861.48a8.08,8.08,0,0,0-8.15,8.14v18.66H437V855.07h5.06l.95,5.3h.4c1.74-3.48,5.06-5.38,9.49-5.38h1.82v6.49Z"/><path class="cls-9" d="M472.13,883.14c4.51,0,6.17-1.58,6.17-3.79,0-6.25-19.77-2.93-19.77-15.27,0-5.45,4.19-9.8,12.89-9.8,9,0,13.84,2.85,13.84,2.85l-2.61,6a20.36,20.36,0,0,0-10.44-2.85c-3.95,0-6,1.19-6,3.56,0,6,19.92,2.21,19.92,15.1,0,5.46-3.87,10.12-13.75,10.12s-14-3.87-14-3.87l2.77-5.3A21.76,21.76,0,0,0,472.13,883.14Z"/><path class="cls-9" d="M511.5,888.28V840.84h7.83v47.44Z"/><path class="cls-9" d="M535.06,855.07l1,4.74h.48c2.37-3.63,5.53-5.53,11.15-5.53,8.62,0,13.83,6,13.83,14.94v19.06h-7.75V869.94c0-5.06-2.84-9-7.9-9a8,8,0,0,0-8.07,7.51v19.85H530V855.07Z"/><path class="cls-9" d="M597.13,855.07h5.22v33.21h-5.22l-1.19-4.9h-.31s-2.85,5.69-11.55,5.69-15.49-6.8-15.49-17.39c0-10.36,6.64-17.4,15.34-17.4,8.85,0,11.7,5.69,11.7,5.69h.31Zm-11.46,5.61c-5.38,0-9.26,4.51-9.26,11s3.88,11,9.26,11,9.4-4.19,9.4-11S591,860.68,585.67,860.68Z"/><path class="cls-9" d="M609.78,871.75c0-10.2,6.88-17.47,17.08-17.47,7.19,0,10.28,2.93,10.28,2.93L635,862.9a14,14,0,0,0-7.59-2.22c-5.53,0-9.8,4.12-9.8,11.07s4.27,10.92,9.8,10.92a14,14,0,0,0,7.59-2.22l2.06,5.62s-3,3-10.2,3C616.66,889.07,609.78,881.88,609.78,871.75Z"/><path class="cls-9" d="M646.54,845h7.75v10.12h8.94v6.09h-8.94V878c0,2.85,1.35,4.43,4.19,4.43a8.74,8.74,0,0,0,4.12-1.27l2.29,5.46a15,15,0,0,1-8,2.45c-7.27,0-10.36-4.43-10.36-10.91v-17h-5.93v-6.09h5.93Z"/><path class="cls-9" d="M669.63,844.32a4.79,4.79,0,1,1,4.74,4.66A4.64,4.64,0,0,1,669.63,844.32Zm8.62,10.75v33.21H670.5V855.07Z"/><path class="cls-9" d="M698.57,888.28l-15-33.21h8.54l8.39,21.59a6,6,0,0,1,.63,2.45h.39a7.42,7.42,0,0,1,.64-2.45l8.38-21.59h8.54l-15,33.21Z"/><path class="cls-9" d="M738.1,889.07c-9.41,0-17-6.72-17-17.24s7.59-17.55,17-17.55,17.08,7,17.08,17.55S747.51,889.07,738.1,889.07Zm9.49-17.32c0-6.87-4.19-11.3-9.49-11.3s-9.49,4.43-9.49,11.3,4.19,11.15,9.49,11.15S747.59,878.63,747.59,871.75Z"/><path class="cls-9" d="M774.31,883.14c4.51,0,6.17-1.58,6.17-3.79,0-6.25-19.77-2.93-19.77-15.27,0-5.45,4.19-9.8,12.89-9.8,9,0,13.84,2.85,13.84,2.85l-2.61,6a20.36,20.36,0,0,0-10.44-2.85c-3.95,0-6,1.19-6,3.56,0,6,19.93,2.21,19.93,15.1,0,5.46-3.88,10.12-13.76,10.12-9.72,0-14-3.87-14-3.87l2.76-5.3A21.8,21.8,0,0,0,774.31,883.14Z"/><path class="cls-9" d="M799.69,879a5,5,0,1,1,0,10,5,5,0,0,1,0-10Zm-2.68-5.3-2-32.81h9.17l-1.9,32.81Z"/><path class="cls-1" d="M337.35,853.23c0,7.35-4,12.34-10.05,14.63v.39l11.39,15.42v1.11h-8.62l-11.31-15.66h-11.3v15.66h-7.83V837.34h19.53C330.31,837.34,337.35,843.35,337.35,853.23Zm-18.59-8.93h-11.3v17.87h11.78c5.77,0,10-2.85,10-8.86S325.09,844.3,318.76,844.3Z"/><path class="cls-1" d="M344.7,840.82a4.78,4.78,0,1,1,4.74,4.66A4.64,4.64,0,0,1,344.7,840.82Zm8.62,10.75v33.21h-7.75V851.57Z"/><path class="cls-1" d="M387,836.94h7.75v47.84h-5.22l-1.19-4.9H388s-2.85,5.69-11.55,5.69-15.5-6.8-15.5-17.39c0-10.36,6.65-17.4,15.26-17.4,8,0,10.44,4.67,10.44,4.67H387Zm-8.94,20.24c-5.37,0-9.25,4.51-9.25,11s3.88,11,9.25,11,9.41-4.19,9.41-11S383.36,857.18,378.06,857.18Z"/><path class="cls-1" d="M419.57,885.73c-10.83,0-17.39-7.35-17.39-17.48s6.4-17.47,16.13-17.47,15.1,6.88,15.1,16.53c0,.71-.08,2.05-.08,2.05H409.77c.47,6.72,4.42,10,10.28,10a14.29,14.29,0,0,0,8.93-2.92l2.77,5.3S428,885.73,419.57,885.73Zm-9.49-21.51h15.58c-.55-4.82-3.16-7.43-7.51-7.43S411,859.24,410.08,864.22Z"/><path class="cls-1" d="M456.42,858a8.08,8.08,0,0,0-8.15,8.14v18.66h-7.75V851.57h5.06l.95,5.3h.4c1.74-3.48,5.06-5.38,9.49-5.38h1.82V858Z"/><path class="cls-1" d="M475.63,879.64c4.51,0,6.17-1.58,6.17-3.79,0-6.25-19.77-2.93-19.77-15.27,0-5.45,4.19-9.8,12.89-9.8,9,0,13.84,2.85,13.84,2.85l-2.61,6a20.36,20.36,0,0,0-10.44-2.85c-3.95,0-6,1.19-6,3.56,0,6,19.92,2.21,19.92,15.1,0,5.46-3.87,10.12-13.75,10.12s-14-3.87-14-3.87l2.77-5.3A21.76,21.76,0,0,0,475.63,879.64Z"/><path class="cls-1" d="M515,884.78V837.34h7.83v47.44Z"/><path class="cls-1" d="M538.56,851.57l1,4.74H540c2.37-3.63,5.53-5.53,11.15-5.53,8.62,0,13.83,6,13.83,14.94v19.06h-7.75V866.44c0-5.06-2.84-9-7.9-9a8,8,0,0,0-8.07,7.51v19.85H533.5V851.57Z"/><path class="cls-1" d="M600.63,851.57h5.22v33.21h-5.22l-1.19-4.9h-.31s-2.85,5.69-11.55,5.69-15.49-6.8-15.49-17.39c0-10.36,6.64-17.4,15.34-17.4,8.85,0,11.7,5.69,11.7,5.69h.31Zm-11.46,5.61c-5.38,0-9.26,4.51-9.26,11s3.88,11,9.26,11,9.4-4.19,9.4-11S594.46,857.18,589.17,857.18Z"/><path class="cls-1" d="M613.28,868.25c0-10.2,6.88-17.47,17.08-17.47,7.19,0,10.28,2.93,10.28,2.93l-2.14,5.69a14,14,0,0,0-7.59-2.22c-5.53,0-9.8,4.12-9.8,11.07s4.27,10.92,9.8,10.92A14,14,0,0,0,638.5,877l2.06,5.62s-3,3-10.2,3C620.16,885.57,613.28,878.38,613.28,868.25Z"/><path class="cls-1" d="M650,841.45h7.75v10.12h8.94v6.09h-8.94V874.5c0,2.85,1.35,4.43,4.19,4.43a8.74,8.74,0,0,0,4.12-1.27l2.29,5.46a15,15,0,0,1-8,2.45c-7.27,0-10.36-4.43-10.36-10.91v-17h-5.93v-6.09H650Z"/><path class="cls-1" d="M673.13,840.82a4.79,4.79,0,1,1,4.74,4.66A4.64,4.64,0,0,1,673.13,840.82Zm8.62,10.75v33.21H674V851.57Z"/><path class="cls-1" d="M702.07,884.78l-15-33.21h8.54L704,873.16a6,6,0,0,1,.63,2.45H705a7.42,7.42,0,0,1,.64-2.45L714,851.57h8.54l-15,33.21Z"/><path class="cls-1" d="M741.6,885.57c-9.41,0-17-6.72-17-17.24s7.59-17.55,17-17.55,17.08,7,17.08,17.55S751,885.57,741.6,885.57Zm9.49-17.32c0-6.87-4.19-11.3-9.49-11.3s-9.49,4.43-9.49,11.3,4.19,11.15,9.49,11.15S751.09,875.13,751.09,868.25Z"/><path class="cls-1" d="M777.81,879.64c4.51,0,6.17-1.58,6.17-3.79,0-6.25-19.77-2.93-19.77-15.27,0-5.45,4.19-9.8,12.89-9.8,9,0,13.84,2.85,13.84,2.85l-2.61,6a20.36,20.36,0,0,0-10.44-2.85c-3.95,0-6,1.19-6,3.56,0,6,19.93,2.21,19.93,15.1,0,5.46-3.88,10.12-13.76,10.12-9.72,0-14-3.87-14-3.87l2.76-5.3A21.8,21.8,0,0,0,777.81,879.64Z"/><path class="cls-1" d="M803.19,875.45a5,5,0,1,1,0,10,5,5,0,0,1,0-10Zm-2.68-5.3-2-32.81h9.17l-1.9,32.81Z"/></g></g></g></g></svg>