<svg xmlns="http://www.w3.org/2000/svg" viewBox="0 0 480.49 577.23"><defs><style>.cls-1,.cls-2{fill:none;stroke-linecap:round;stroke-linejoin:round;}.cls-1,.cls-2,.cls-3{stroke:#fff;}.cls-1{stroke-width:21.01px;}.cls-2{stroke-width:17.6px;}.cls-3{fill:#fff;stroke-miterlimit:10;}</style></defs><title>Retiro</title><g id="Capa_2" data-name="Capa 2"><g id="Capa_1-2" data-name="Capa 1"><line class="cls-1" x1="324.89" y1="469.99" x2="10.51" y2="469.99"/><path class="cls-1" d="M167.7,512.31a6,6,0,1,1-6,6,6,6,0,0,1,6-6"/><path class="cls-1" d="M324.89,373.25v145.1a48.39,48.39,0,0,1-48.37,48.37H58.87a48.38,48.38,0,0,1-48.36-48.37V58.87A48.38,48.38,0,0,1,58.87,10.51h133"/><circle class="cls-1" cx="324.89" cy="155.61" r="145.1"/><polygon class="cls-2" points="245.6 216.59 397.33 216.59 382.73 154.29 380 111.37 263.55 111.37 262.46 154.29 245.6 216.59"/><rect class="cls-3" x="255.83" y="189.55" width="130.75" height="27.25"/><path class="cls-1" d="M286.11,107S285.56,56.8,316,56.8,356.31,70,356.31,107"/></g></g></svg>