<svg xmlns="http://www.w3.org/2000/svg" viewBox="0 0 591.41 591.41"><defs><style>.cls-1{fill:none;stroke:#fff;stroke-linecap:round;stroke-linejoin:round;stroke-width:18.86px;}</style></defs><title>TURNOS_1</title><g id="Capa_2" data-name="Capa 2"><g id="Capa_1-2" data-name="Capa 1"><path class="cls-1" d="M387.81,552.11,283.26,582l29.87-104.55,178.71-178.7a52.81,52.81,0,0,1,74.68,74.68Z"/><line class="cls-1" x1="469.42" y1="321.09" x2="544.09" y2="395.77"/><line class="cls-1" x1="313.13" y1="477.41" x2="387.81" y2="552.09"/><path class="cls-1" d="M233.47,457.5H34.33a24.88,24.88,0,0,1-24.9-24.89V84.11a24.89,24.89,0,0,1,24.9-24.89H482.4a24.89,24.89,0,0,1,24.89,24.89V233.47"/><line class="cls-1" x1="133.9" y1="9.43" x2="133.9" y2="133.9"/><line class="cls-1" x1="382.83" y1="9.43" x2="382.83" y2="133.9"/><line class="cls-1" x1="9.43" y1="183.68" x2="507.29" y2="183.68"/></g></g></svg>