<svg xmlns="http://www.w3.org/2000/svg" viewBox="0 0 360.2 344.22"><defs><style>.cls-1{fill:none;stroke:#fa0050;stroke-linecap:round;stroke-linejoin:round;stroke-width:10px;}</style></defs><g id="Capa_2" data-name="Capa 2"><g id="Capa_1-2" data-name="Capa 1"><line class="cls-1" x1="35.45" y1="280.76" x2="35.45" y2="163.82"/><line class="cls-1" x1="20.23" y1="280.76" x2="96.36" y2="280.76"/><line class="cls-1" x1="5" y1="339.22" x2="355.2" y2="339.22"/><line class="cls-1" x1="5" y1="309.99" x2="355.2" y2="309.99"/><line class="cls-1" x1="20.23" y1="163.82" x2="96.36" y2="163.82"/><line class="cls-1" x1="142.03" y1="280.76" x2="218.16" y2="280.76"/><line class="cls-1" x1="142.03" y1="163.82" x2="218.16" y2="163.82"/><line class="cls-1" x1="81.13" y1="280.76" x2="81.13" y2="163.82"/><line class="cls-1" x1="157.26" y1="280.76" x2="157.26" y2="163.82"/><line class="cls-1" x1="202.94" y1="280.76" x2="202.94" y2="163.82"/><line class="cls-1" x1="263.84" y1="280.76" x2="339.97" y2="280.76"/><line class="cls-1" x1="263.84" y1="163.82" x2="339.97" y2="163.82"/><line class="cls-1" x1="279.07" y1="280.76" x2="279.07" y2="163.82"/><line class="cls-1" x1="324.75" y1="280.76" x2="324.75" y2="163.82"/><path class="cls-1" d="M22.46,121.49a7.15,7.15,0,0,0-2.55,8.15,7.63,7.63,0,0,0,7.22,4.93h306a7.58,7.58,0,0,0,7.22-4.92,7.12,7.12,0,0,0-2.51-8.14L185.27,6.55a7.86,7.86,0,0,0-9.38,0Z"/></g></g></svg>