<svg xmlns="http://www.w3.org/2000/svg" viewBox="0 0 285.89 343.93"><defs><style>.cls-1{fill:none;stroke:#fa0050;stroke-linecap:round;stroke-linejoin:round;stroke-width:10px;}</style></defs><g id="Capa_2" data-name="Capa 2"><g id="Capa_1-2" data-name="Capa 1"><line class="cls-1" x1="193.74" y1="280.86" x2="5" y2="280.86"/><path class="cls-1" d="M99.37,306.26a3.63,3.63,0,1,1-3.63,3.63,3.63,3.63,0,0,1,3.63-3.63"/><path class="cls-1" d="M193.74,222.78v87.11a29,29,0,0,1-29,29H34a29.05,29.05,0,0,1-29-29V34A29.05,29.05,0,0,1,34,5h79.85"/><path class="cls-1" d="M204,11.3l22.34,51.83h43.47a10.68,10.68,0,0,1,7.52,18.64l-37.75,33.64L260.5,163.5a11.41,11.41,0,0,1-16.23,14.27l-50.52-28.5-50.54,28.48A11.4,11.4,0,0,1,127,163.48l20.92-48.07L110.15,81.77a10.66,10.66,0,0,1,7.49-18.64h43.55l22.3-51.83a11.63,11.63,0,0,1,20.51,0Z"/></g></g></svg>