<svg xmlns="http://www.w3.org/2000/svg" viewBox="0 0 339.76 350.08"><defs><style>.cls-1{fill:none;stroke:#fa0050;stroke-linecap:round;stroke-linejoin:round;stroke-width:10px;}</style></defs><g id="Capa_2" data-name="Capa 2"><g id="Capa_1-2" data-name="Capa 1"><line class="cls-1" x1="108.58" y1="189.5" x2="108.43" y2="226.4"/><path class="cls-1" d="M55.3,35.78a104.08,104.08,0,0,0,74.66,32,104.36,104.36,0,0,0,41-8.23"/><circle class="cls-1" cx="109.05" cy="67.73" r="62.73"/><path class="cls-1" d="M130.46,256,5,255.47a103.31,103.31,0,0,1,192.08-52.56"/><rect class="cls-1" x="174.53" y="248.94" width="73.8" height="118.08" rx="7.38" transform="translate(-97.36 518.21) rotate(-89.78)"/><path class="cls-1" d="M173.35,270.87l8.19-37a7.29,7.29,0,0,1,3.26-4.65,7.38,7.38,0,0,1,5.62-1l100.87,22.33a7.31,7.31,0,0,1,4.63,3.23,7.43,7.43,0,0,1,1,5.57l-12.83,57.72a7.39,7.39,0,0,1-8.81,5.59l-4.85-1.07"/><path class="cls-1" d="M210.24,232.66l16.57-36A7.38,7.38,0,0,1,236.6,193l93.86,43.17a7.37,7.37,0,0,1,3.62,9.77l-24.71,53.64a7.38,7.38,0,0,1-9.78,3.63L288.27,298"/><path class="cls-1" d="M211.45,304.29a3.69,3.69,0,1,1-3.71,3.67,3.68,3.68,0,0,1,3.71-3.67"/></g></g></svg>